<svg width="1094" height="940" fill="none" preserveAspectRatio="none" xmlns="http://www.w3.org/2000/svg"><path d="M841.977 74.46c-9.089 2.719-17.284 2.094-24.945.303-29.361-6.852-58.28-16.07-88.75-16.612-6.84-.123-11.405-5.817-18.548-5.299-3.391.247-5.099-.123-6.019 3.393-3.736 14.205.739 18.116 15.321 18.945 16.726.953 33.32 4.601 49.873 7.625 2.324.427 4.688 1.643 7.275 1.741 36.201 1.315 71.581 9.432 107.504 12.907 10.674 1.035 21.266 2.547 32.17 3.056-22.186-10.86-46.95-13.342-69.694-21.862 5.846-8.125 19.164-12.619 28.393-9.374 2.973 1.044 3.966 2.917 2.767 6.844-.648 2.136-.755 4.026 1.626 3.755 11.98-1.373 21.143 8.445 34.362 6.9 7.365-.862 18.82 6.417 27.351 11.544 13.736 8.256 25.823 19.232 41.169 25.427 1.822-4.675-7.169-7.928-2.809-11.173 3.096-2.309 8.474 1.15 12.768 2.769 11.359 4.272 20.669 12.734 32.619 15.659 2.4.583 2.47 2.316 2.33 4.222-.13 1.906-1.55 2.44-3.04 2.342-3.54-.238-8.02 1.873-10.4-1.643-5.57-8.199-15.942-3.377-23.447-11.56 1.593 7.255 5.822 9.07 8.261 12.201 2.696 3.458 3.516 5.512-1.306 8.453-7.685 4.692-7.488 11.133-.32 16.358 1.938 1.413 5.542 1.914 2.389 5.274-4.458 4.757-1.897 10.114-2.233 15.388-.476 7.485.378 12.611 6.606 18.025 5.77 5.012-.77 9.769-4.989 11.297-10.682 3.853-6.585 7.147-.558 11.321 2.077 1.438 3.527 3.607 6.487 3.746 2.88.148 5.68 2.506 4.71 4.93-3.9 9.702 2.74 11.263 9.28 14.106 20.66 8.988 27.38 31.104 25.28 51.948-.13 1.265.31 2.916-.33 3.738-7.25 9.251-30.14 10.902-39.39 2.982-2.57-2.202-27.106-3.985-28.814-1.701-2.167 2.909-1.543 4.93 2.619 6.022 10.904 2.876 19.936 9.687 29.325 15.487 14.44 8.93 16.48 18.65 11.62 34.818-4.5 14.977-13.36 26.709-23.538 37.808-2.775 3.032-4.819 6.31-2.914 9.752 1.822 3.303 6.026 1.372 9.162 1.561 6.5.386 12.01-3.376 17.05-6.268 6.2-3.541 11.34-1.947 17.39-.074-3.87 2.185-8.23 3.812-11.47 6.704-3.91 3.5-14.45 2.637-11.33 9.941 2.61 6.153 8.06 15.223 18.17 11.781 12.74-4.338 18.5.937 22.5 12.578 2.82 8.208 7.51 15.659 15.83 20.473 5.31 3.073 8.53 7.567 1.31 13.614-4.3 3.59-8.02 8.158-12.9 10.984-6.08 3.508-11.69 9.498-12.1 14.764-.95 11.789-9.55 19.471-16.2 24.006-10.21 6.942-14.34 17.253-21.75 25.485-6.43 7.164-12.624 14.509-21.164 19.2-8.186 4.502-16.602 8.593-25.74 13.293 10.041 8.979 16.782-9.111 26.816-1.298-9.319 5.184-18.236 10.77-27.711 15.133-4.098 1.89-6.159 5.611-9.886 7.616-1.774.953-3.547 2.793-2.053 5.471 1.987 3.558 4.294.707 6.462.37 4.902-.764 10.255-7.46 13.769-3.96 8.548 8.528 19.994 1.093 28.443 7.049 13.984-8.675 26.604 6.877 40.984 2.079 7.28-2.432 15.5 2.185 22.75 5.348 8.28 3.615 16.67 7.468 25.69 7.066 7.27-.321 7.27 3.754 7.86 8.527.9 7.329-5.83 5.332-8.77 6.055-3.07.756-8.11-4.28-6.08 4.264.5 2.12-1.93 2.309-4.64 1.939-7.42-1.002-14.92-5.751-22.23 2.884-3.84 4.527-7.93-5.086-13.34-4.535-1.91 7.493 8.26 16.275-1.87 23.365-.28.197-.7.666-.62.83 1.29 3.204 7.61 7 1.66 9.563-5.78 2.489-12.39 5.505-19.54 2.966-5.59-1.988-12.03-4.938-13.91 4.716-7.255-3.853-12.748 8.7-20.868 1.955-2.833-2.35-7.447-5.792-12.275-1.413-1.889 1.717-4.96 2.374-6.405-.97-1.223-2.834-4.228-3.039-5.419-2.111-10.813 8.47-20.576-2.925-30.782-1.323-8.088 1.274-15.822 3.139-20.888-6.087 7.898 22.124 26.931 27.612 49.683 31.219-10.707 2.966-10.707 2.966-22.226 1.643 16.807 3.426 25.494 23.308 45.241 21.303 2.808-.287 7.127 1.898 6.396 7.099-.78 5.512-4.934 3.327-7.701 3.442-7.366.312-14.755.049-22.137.164-1.987.033-4.565-.756-5.32 2.342-.895 3.631 2.167 4.436 4.286 5.274 2.29.904 5.222 1.684 7.439 1.035 9.122-2.661 15.994 5.488 24.64 4.733.624-.058 1.363 1.183 2.045 1.823-1.511.814-.115 3.689-2.841 3.788-2.825.107-5.731 1.191-8.441.78-27.465-4.165-55.193-.624-82.699-3.015-18.992-1.651-36.538 1.126-54.758 8.536-16.89 6.869-35.545 11.157-57.426 12.652 11.347 5.012 18.819 11.552 29.279 10.779 1.429-.106 3.367-.238 4.278.551 15.888 13.868 35.372 5.989 53.058 8.24 6.881.879 14.969-2.276 22.416-1.742 8.58.625 20.305-5.003 23.688 9.391.107.46 1.338 1.117 1.823.969 8.498-2.653 16.553 6.934 25.486.428 4.902-3.566 10.904-4.749 17.013-.986 1.938 1.191 5.477 1.536 7.472.575 13.154-6.31 25.765-1.487 39.293 1.281-18.257 8.241-38.259 1.701-56.437 9.818 4.236 5.447 10.444 2.07 14.508 1.89 14.648-.666 29.231-1.824 43.879-.107.66.074 1.53-.756 2.05-.542 14.02 5.742 26.84 6.046 38.35 8.051 12.17 2.12 23.4 9.218 36.65 6.893 1.9-.329 1.82 2.695 1.89 4.502.13 3.82-2.99 2.941-5.12 4.042-10.03 5.201-20.75 4.059-31.36 4.445-2.17.074-4.29 1.701-6.78 2.769 6.06 3.992 9.78 9.119 16.3 12.167 7.53 3.516-3.31 11.305.32 18.009-11.82-6.318-22.19-.263-32.37 1.166-10.27 1.438-20.32 1.668-30.227 0-8.498-1.429-16.569.699-24.788.526-12.177-.263-24.312-1.931-36.489-2.678-9.861-.608-19.542 2.801-29.509 1.561-1.47-.181-4.352 1.298-4.607 2.448-3.637 16.415-18.154 13.991-29.189 16.423-20.782 4.576-41.555 9.062-62.189 14.353-11.832 3.04-24.599 2.415-36.406 5.496-18.187 4.749-36.9 1.98-55.292 6.696-28.894 7.452-58.674 10.795-88.816 9.703-20.404-.74-40.709.23-60.941-4.839-22.678-5.677-45.808-9.654-68.872-13.605-9.319-1.594-19.189 2.711-28.483-1.66-1.01-.477-2.677 1.068-3.096-1.397-1.002-5.972-5.731-9.522-13.063-9.604-13.285-.156-26.57-.024-39.847-.057-11.734-.017-21.915-.83-31.522-11.059-5.008-5.332-17.185-8.232-27.342-7.106-3.366.378-7.225 2.267-9.902-1.997-.624-.985-2.381-1.938-3.514-1.823-23.623 2.3-44.018-10.82-66.45-13.647-6.799-.854-13.614 2.095-20.519-2.735-2.603-1.824-4.803-2.679-4.302-5.71.911-5.529 5.353-1.405 6.692-1.109 21.224 4.74 42.843 7.336 63.978 12.742 18.515 4.732 37.704 6.811 56.531 10.352 11.528 2.169 6.569-8.134 9.114-12.357 2.456-4.075-.706-7.615-6.018-7.624-17.144-.033-33.106-7.131-50.57-7.295-14.361-.14-28.771-5.11-43.436-6.663-21.323-2.259-42.638-4.897-63.789-8.372-15.716-2.579-32.055-.337-47.311-6.342-1.568-.616-3.588-.082-5.838 1.618 10.888 3.845 21.923 11.157 32.622 10.672 14.254-.64 24.254 11.297 38.336 9.021 3.457-.559 2.898 3.952.41 6.523-2.734 2.818-26.898 5.702-27.842 2.679-4.221-13.425-17.9-14.895-26.349-15.396-16.463-.97-29.009-8.931-42.827-15.093-.649-.287-2.045-.09-2.102-.328-3.26-15.413-21.529-9.539-28.295-19.981-.731-1.125-1.937-2.333-4.524-1.133-4.187 2.933 7.144 7.196 1.133 8.692-5.624 1.405-14.59 1.856-17.628-3.024-5.148-8.265-13.671-7.303-20.429-10.425-3.53-1.635-6.158-2.974-7.66-6.244-.65-1.413.353-3.295 2.069-2.925 3.612.772 6.962-3.147 11.043.846 7.587 7.403 18.934 6.507 27.974 11.428-3.629-4.929-9.87-5.923-13.162-11.099-2.093-3.295-3.366-4.79.854-7.674 6.027-4.124 9.402-9.489 1.314-15.527-1.593-1.183-3.35-5.168-3.096-5.373 8.408-6.581-2.627-16.292 3.778-22.938 2.635-2.744-.132-6.154-.97-6.4-6.1-1.824-5.427-8.462-9.08-11.839 5.78-2.843 10.115-9.021 18.145-7.583-7.258-3.426-10.592-11.74-19.032-12.825-5.247-.673-4.229-4.469-2.267-7.09 3.851-5.151.05-8.758-3.202-9.456-23.277-5.003-31.16-26.75-31.225-49.664-.025-9.497 7.808-12.003 15.083-13.178 6.478-1.043 13.252-.238 19.886-.246.74 0 1.996-.197 2.135.099 5.592 12.175 15.946 4.017 23.959 5.734 2.538.542 5.149 2.103 6.06-1.758.657-2.752-1.281-3.303-3.621-4.239-10.732-4.297-20.108-11.001-29.55-17.565-11.906-8.274-14.074-21.369-8.926-34.597 5.682-14.607 14.468-26.561 24.362-38.178 2.282-2.686 4.458-7.402 1.65-9.982-3.21-2.949-8.22-1.832-12.513-.287-7.677 2.76-14.27 8.979-23.196 7.673-1.782-.263-4.122 3.295-5.238-.493-.854-2.9 1.223-3.36 3.612-4.099 2.66-.822 5.034-2.695 7.423-4.273 4.031-2.661 12.275-4.485 9.82-9.538-3.021-6.227-7.045-15.24-17.785-12.603-2.085.51-4.154.633-6.273 1.52-7.02 2.95-11.404 4.264-13.424-7.09-1.757-9.875-8.49-19.652-18.113-25.838-5.78-3.714-9.484-6.17-2.234-14.156 7.095-7.805 17.678-11.214 23.023-21.024 2.291-4.19 5.699-7.533 4.78-12.676-1.34-7.485 6.362-9.522 9.556-11.749 10.945-7.64 19.32-17.91 25.101-28.648 6.33-11.748 17.037-18.017 26.357-23.998 5.542-3.549 12.735-10.327 23.483-8.897-11.964-6.77-19.526 3.557-29.272 3.779 2.373-9.834 11.815-8.618 17.44-12.496 6.889-4.749 15.814-6.655 20.486-14.468.854-1.429 4.146-.731 2.931-3.409-1.084-2.383-3.481-2.983-5.649-2.21-3.046 1.092-5.854 2.842-8.802 4.231-5.526 2.604-11.191 4.855-15.149-2.21-2.028-3.623-5.468-2.753-7.726-2.103-22.465 6.449-43.591-4.305-65.49-5.439-13.071-.674-26.069-8.372-39.551-11.502-4.147-.97-1.552-7.575-6.421-8.191 3.334-1.561 4.352-5.628 9.09-6.277a206.585 206.585 0 0 0 31.455-6.835c3.465-1.044 5.945-2.465 8.777.345 2.004 1.988 4.55 3.376 6.733 1.446 1.995-1.767.427-4.831.632-7.247.436-4.995-10.64-11.748 1.987-15.1.115-.033-.024-2.013-.427-2.9-3.883-8.503-3.892-8.717 4.878-9.308 6.667-.444 13.942-.189 19.894-1.085 7.776-1.166 17.046-4.79 23.927-12.726.624 5.365 3.653 6.293 8.194 7.633 5.904 1.741 13.967-3.509 17.859 4.888 4.039-3.18 8.095-7.025 13.744-4.839 6.93 2.678 15.248-1.035 21.398 4.978 1.626 1.594 3.448 1.241 3.941-1.265.558-2.842-.714-7.394 4.959-4.518.238-1.832.477-3.665.723-5.505-8.219.394-9.59-12.06-19.033-9.974-2.832.625-6.33-.484-9.179-1.643-2.702-1.092-7.587 1.931-8.014-3.335-.509-6.318 6.092-1.947 9.081-6.4-10.633-4.585-17.103-16.415-30.988-15.068-2.463.238-5.041.468-7.43-1.232-2.283-1.627-6.29-1.931-5.838-5.595.525-4.256 4.335-4.182 7.726-4.174 7.185.017 14.369-.098 21.554-.032 3.514.032 7.406-.231 7.389-4.453-.016-3.435-2.143-5.217-6.913-5.086-9.254.247-17.44-6.145-26.948-6.014-3.9.05-3.473-4.099-8.162-7.271 22.925 1.685 43.263 2.942 63.544 4.798 6.724.617 12.677-2.325 19.394-2.152 17.07.419 34.263 5.077 51.301-1.471 9.089-3.491 18.819-5.258 28.081-8.355 9.565-3.196 19.032-6.441 29.115-7.846 4.138-.575 8.006-3.122 14.377-5.759-9.483-2.851-16.881-5.119-24.312-7.271-2.069-.6-4.655-.246-6.281-1.372-19.747-13.704-41.432-6.252-62.493-6.154-10.986.058-25.067 2.901-32.112-2.661-7.439-5.875-14.55-6.113-21.824-9.005-2.784-1.101-2.365-2.407-5.904-.205-6.027 3.746-14.016 4.855-21.225 2.678-4.458-1.347-9.147-1.947-12.948-.78-10.666 3.261-20.856-.23-31.423-1.619 17.39-7.69 36.752-4.658 54.799-10.056-28.689-2.9-57.443.814-87.954.304 4.639-3.081 9.615-1.553 11.421-5.833-6.61-2.005-14.008-.099-20.116-2.243-12.596-4.42-25.076-8.396-38.493-9.021-1.182-.057-4.302-.805-2.011-3.327 2.61-2.875 4.713-7.032 9.738-5.907 1.675.37 2.997 2.678 4.934 1.495 8.474-5.184 18.614-1.421 28.278-5.176-3.957-5.02-4.27-12.216-13.03-11.994-4.262.106-6.922-4.322-4.516-7.871 2.225-3.286-1.38-9.998 6.995-10.105 21.841-.271 43.181-5.645 65.531-3.632 17.119 1.537 34.296 4.716 51.695 3.911 8.153-.378 16.052-2.514 24.386-2.169 5.403.222 11.356-1.61 12.719-9.407.665-3.795 4.368-6.556 9.229-6.244 18.564 1.2 34.756-12.027 53.657-8.914 12.144-12.898 29.649-7.64 44.322-12.159 14.123-4.354 30.446-3.713 45.718-4.773 15.198-1.06 29.501-4.905 44.248-7.28 31.267-5.027 62.706-7.985 94.49-6.835 22.029.797 42.655 9.128 64.126 11.47 18.86 2.061 36.456 10.515 55.981 9.25 4.672-.304 14.772-4.321 16.734 7.501.296 1.766 9.952 2.662 15.305 2.769 16.964.345 33.952-.222 50.915.304 6.799.213 15.198-.567 16.824 9.694.181 1.134 2.069 2.966 3.005 2.876 10.543-1.01 18.992 10.302 30.167 5.085 11.495 10.18 26.176.214 39.863 7.41 12.842 6.762 29.223 11.404 45.299 10.13 7.267-.566 13.244 1.315 19.419 7.723Z" fill="#212C26"/></svg>