<svg width="794" height="520" fill="none" xmlns="http://www.w3.org/2000/svg"><g clip-path="url(#a)" fill-rule="evenodd" clip-rule="evenodd" fill="#EDCC94"><path d="m742.862 504.34-3.492-.001c1.297 2.251.804 4.747.579 7.043-.225 2.385.962 2.854 2.685 3.3-.939-3.477-.154-6.91.228-10.342ZM63.447 418.762c.314-1.115.605-2.274 2.217-1.716.157-.557-.918-1.182.157-1.649l-5.842-.003c.223 2.096.737 3.879 3.468 3.368ZM758.779 499.242c-.178-1.182.583-2.363-.066-3.522l-3.492-.001c.447 1.917-.404 5.126 3.558 3.523ZM730.398 491.653c1.88.535 2.575-.668 2.911-2.228l-4.656-.002c-.941 1.917.716 1.939 1.745 2.23ZM241.246 488.17c.202-.223.403-.446.627-.646.337-1.538-.76-2.764-1.006-4.213 1.859-.534 3.403-1.247 4.835 1.049 0 .023.023.023.023.023-.068.356-.113.757-.269 1.047 1.298-.155 2.417.135 3.267 1.183.403.111.828.223 1.231.335.359-.624.717-1.271 1.076-1.895a78.062 78.062 0 0 1-1.119-1.828c-.896.446-1.747 1.649-2.731.133-.403-.067-.694-.023-.895.089.022-.424.112-.936.246-1.605l-1.275-2.341c-.559.245-.985.044-1.343-.379-1.007-.536-2.036-.893-3.178-.47-.808 5.037-1.592 5.505-5.351 3.141-.784-.491-1.432-1.204-2.149-1.806h-.089c-4.029-2.141-5.395 1.358-8.642 3.764 2.91-.423 5.328-.667 5.551 1.027.446 3.5 3.334 2.877 5.192 4.081 2.417 1.606 3.94-1.292 5.999-.689ZM324.158 492.592c-2.149.311-2.262 1.649-2.083 3.276 1.119.312 1.992.848 1.947 2.185-.046 1.404-1.232.936-1.993 1.203-1.076 2.496 1.655 2.92 2.416 4.436 1.567-.556 3.089-.177 4.611.27.851-.446 1.008-1.248 1.075-2.095-.694-.223-2.037-.469-1.701-1.093 1.389-2.518-.714-4.28-1.139-6.888 2.149.313 4.342 2.075 6.469.092-.94-.357-1.633-.625-2.35-.893-2.35-1.093-4.767-.848-7.252-.493ZM253.993 522.144c-.022-.446-.045-.914-.089-1.36-2.998-4.57-3.58-4.816-8.169-3.681-.918.223-1.881.222-2.821.333-.649.825-3.313 1.292-1.053 2.697 2.395 1.494 4.61 4.058 8.057 2.99 1.366-.222 3.044.803 4.075-.979ZM623.164 521.235c-2.686-.046-5.417.198-8.059-.226-5.394-.894-7.096-.226-9.873 4.721 2.685 1.361 5.103 1.184 7.499-.888 1.232-1.07 3.359-2.206 4.656-1.158 2.216 1.784 4.007-.043 5.932.092.292-.869.18-1.717-.155-2.541ZM366.823 434.233c-1.119.467-3.156-.336-3.202 1.715-.045 2.14 1.701 1.806 3.245 2.007 2.149.268 4.522.158 6.335 1.763.156-.401.447-.601.85-.623.224-.714.426-1.427.65-2.14.852-2.697-.558-2.898-2.64-2.386-.135.357-.068.958-.672.802-.157-.044-.201-.535-.313-.847-1.343-1.159-2.798-.893-4.253-.291ZM752.698 421.049l-3.157-.536c.918 1.761-1.052 2.183-1.545 3.298 2.529 1.583 5.394.291 8.058.983 1.611.424 1.993-1.225 2.62-2.294-2.216.422-4.791 2.316-5.976-1.451ZM378.522 456.571c-.716-.089-1.478-.023-2.194-.023 0 .334-.023.646-.023.981 2.015.29 4.029.558 6.044.871 3.022.469 3.336-2.027 4.053-3.832 1.075-2.652-1.589-2.029-2.886-4.169.915 6.664.624 6.91-4.994 6.172ZM284.265 441c-1.41.089-3.089.266-3.448 2.183-.09.557-.135 1.114-.18 1.649-.157.959-.314 1.939-.471 2.898 2.821-.066 5.261-.778 6.202-3.854l-.067-.089c-1.208-.558-.178-2.898-2.036-2.787ZM632.632 521.617c-.111-1.092.717-1.538 1.277-2.161-.291-.914-1.096-1.873.359-2.541.158-2.363-2.148-2.943-3.267-2.832-2.35.244-1.232 2.607-1.524 4.123 1.187.446 3.022.469 1.79 2.586.045.624-.448 1.471.47 1.783.738.201.94-.445.895-.958ZM271.756 488.739c1.165-.691 2.866-1.069 1.77-3.053-2.485.712-5.283.176-7.544 2.025-.717.58-1.791.178-2.552-.491-.873-.446-1.701-1.137-2.753-.447l.201 1.806c2.82.714 5.797-.756 8.55.694.516-1.315 1.433-.891 2.328-.534ZM260.468 445.605c-2.194.779-3.29-.96-4.677-2.008-1.142.913-2.306.088-3.47.021.022 1.159-.292 2.184-1.031 3.076 1.948.246 3.85.135 5.753 1.339 1.812 1.227 2.215.714 3.425-2.428ZM378.843 435.909c-.493.958-.359 1.27.134 1.27 3.245.113 5.955-2.137 9.223-1.958-3.67-2.965-6.514-.069-9.357.688ZM259.717 479.707c.022.49.537.936.827 1.405.739.914 1.5 1.828 2.238 2.764.56.045 1.164.001 1.679.179 1.41.469 2.574.737 2.754-1.336.134-1.493-.671-1.895-1.97-2.029-1.499-.134-2.954-.402-4.14-1.517-.56-.558-1.455-.692-1.388.534ZM188.069 523.59c.873-.624 1.791-1.025 2.329-1.738 1.209-1.604-.268-2.764-1.006-3.945-.47-.758-1.455-.447-1.993-.068-1.522 1.047.649 1.739.402 2.831-.201.825.134 1.783.268 2.92ZM143.546 463.392c.894 2.564 2.663 1.428 3.245.225.762-1.583.852-3.321-1.184-4.927-3.111-2.453-2.508 1.961-4.187 1.804 2.037.001 3.917.113 2.126 2.898ZM209.083 476.969c.784.424 1.567.87 2.35 1.294.694-.335 1.411-.624 2.06-1.047.761-.49 2.015-.891 1.411-2.095-.246-.49-1.32-.558-2.014-.803 0 0-.291-.112-.291-.134-1.545.423-2.866 1.18-3.516 2.785ZM759.448 505.461c.56 1.426 1.544 3.477 2.731.981.851-1.805 2.396-2.852 3.225-4.501-1.993 1.158-3.201-.714-4.767-1.205-.941 1.47 1.386 3.7-1.189 4.725ZM208.509 515.685c.179.29.269.602.268.936.291.045.56.09.851.134.762-2.095 3.224-2.005 4.523-3.431a19.799 19.799 0 0 1-.783-1.114c-1.478.356-2.954-2.163-4.41.02.47 1.226-.09 2.318-.449 3.455ZM115.012 444.926h.045v-.044l-.045.044ZM122.487 447.76a1.923 1.923 0 0 1-.985.267c-.157 1.003-.314 1.983.962 2.452.873-.044 1.881-.49 2.417.692 2.306.469 4.567.603 6.627-.889-3.045-.648-6.111-1.273-9.021-2.522ZM240.388 508.185c.179-.267 1.321-.244.291-.78-.246-.133-.918.602-1.5.134-1.455.133-2.887.311-3.627 1.871.09 1.003.156 2.028.246 3.031.649-.267 1.32-.512 1.97-.779 0-1.828 1.791-2.295 2.62-3.477ZM330.308 449.509c.335-.49.671-.958.381-1.493-.739-1.404-2.149-1.383-3.447-1.361-1.679.044-3.671-.113-3.045 2.629.917.157 1.857.246 2.506 1.049 1.187-.2 2.619.603 3.605-.824ZM438.974 420.173c-.38.423-1.343 1.047-1.276 1.493.179 1.159 1.096 2.096 2.327 2.141 1.142.022.739-1.159.874-1.828.247-1.226-.559-1.694-1.925-1.806ZM99.232 499.863c.068-.423.113-.824.18-1.248-.336-.178-.694-.334-.985-.58-2.148-1.672-3.47.021-4.903 1.18-.179.156-.224.869-.045 1.047 1.298 1.271 2.82.759 4.298.403.515-.089.963-.512 1.455-.802ZM275.37 463.687c.47.78.715 1.828 1.969 1.762 1.03-1.204 2.821-2.028 2.128-4.101-.716-.201-1.455-.179-2.171-.246-2.306-.179-3.313.244-1.926 2.585ZM243.657 504.977c.045.134.179.245.448.602.851-1.805 1.277-3.075.203-4.19-.224-.246-1.254-.134-1.478.133-1.231 1.448.492 2.318.827 3.455ZM426.551 479.302c1.007 2.006 2.775.981 5.104.603-1.276-2.006-2.148-3.477-4.252-2.943-1.165.289-1.143 1.738-.852 2.34ZM382.394 516.553c-.917-1.004-1.924-1.94-3.29-.826-1.97 1.604-.113 2.92.446 4.324 2.753.291 2.553-1.804 2.844-3.498ZM600.281 475.667c1.612.157 2.977-.4 3.023-2.406-.537-.647-.425-1.382-.268-2.095-1.768.066-3.492.199-3.471 2.606 0 .736.045 1.828.716 1.895ZM522.438 504.591c-.067.335.022.914.246 1.048 1.723 1.004 1.903-.98 3.985-2.161-2.395.445-3.805-.737-4.231 1.113ZM19.79 437.022c-1.209.134-1.523 1.047-1.568 2.006-.067 1.136.76 1.895 1.7 1.85.986-.066 1.568-1.113 1.68-2.05.135-1.203-.984-1.426-1.812-1.806ZM658.668 457.479c.022-.691-.828-1.093-1.656-1.138-.627.29-1.59.423-1.635 1.248-.045.958.783 1.248 1.567.981.649-.223 1.701-.713 1.724-1.091ZM405.962 466.923c.716-1.203 1.254-2.406.113-3.677-1.142-.045-1.052.936-1.075 1.56-.023.78-.516 1.961.962 2.117ZM275.374 451.584c-.537-.914-1.096-1.984-2.416-1.962-.851.401-1.165 1.114-.919 1.827.358 1.092 1.096 2.029 2.417 1.762.649-.111 1.433-.78.918-1.627ZM220.22 506.595l2.461 2.453c2.262-1.158.225-2.206-.245-3.031-1.275-2.363-1.723-.58-2.216.578ZM136.342 452.045c0-.736-.156-1.449-.245-2.185-2.485-.893.224-1.516.112-2.296-3.357-.647-1.455 2.073-1.971 3.187-.403.869-.023 1.872 1.074 2.185.649.178 1.03-.334 1.03-.891ZM431.266 500.723c-1.722-2.407-3.357-2.43-5.999-.671 2.44 1.361 4.052 1.094 5.999.671ZM242.452 495.571c1.5-.223 1.702-1.226 1.478-2.474l-2.551-.001c-.359.401-.695.802-1.053 1.226.492 1.003.872 1.984-.023 2.741.179-.022.358.045.559.156-.134-1.159.583-1.515 1.59-1.648ZM237.707 494.12c.202-.111.358-.223.515-.334-.179.022-.358.133-.515.334ZM239.296 494.722s-.313-.29-.313-.312c-.022 0-.045-.022-.045-.022v.111c-.022 0 .358.223.358.223ZM304.098 499.918c-1.32.178-1.903 1.024-2.06 2.273l-.045.066c.985.736.895 1.405-.157 1.984.246.223.246.446 0 .669.559.29 1.119.602 1.678.892.359-1.961 1.031-3.878.584-5.884ZM651.233 463.494c1.679.045 3.537.469 3.963-1.96-2.73-1.183-3.648-.715-3.963 1.96ZM701.979 525.9c1.5-.356 3.425.069 4.008-2.116-1.5.223-2.933.445-4.343.667.089.491.223.981.335 1.449ZM582.541 447.152c.738.246 1.141-.178 1.254-.712.358-1.516-.895-1.94-1.925-2.297-.761-.245-1.477.155-1.657 1.983-.067.847 1.321.692 2.328 1.026ZM144.83 440.948c-2.014-.781-3.738-.938-3.985 1.915.649.067 1.432.379 2.126.513.112.892 1.142.803 2.059.67-.067-.513-.134-1.003-.201-1.494-.022 0-.067-.022-.089-.022.09-.379.135-.891.09-1.582ZM720.585 514.607c-.403.089-.672.802-1.097 1.381.939.848 1.812 1.628 3.043 1.495.269-.022.695-.958.628-1.449-.179-1.56-1.388-1.694-2.574-1.427ZM472.952 427.697c-.336-1.07-1.32-1.783-2.484-1.472-.963.111-1.769.356-1.613 1.27.224 1.382 1.074 2.408 2.663 2.141.941-.178 1.702-1.092 1.434-1.939ZM108.222 523.092c0 1.092.067 1.85-.023 2.585-.157 1.293.604 1.851 1.611 1.606.873-.2.627-1.181.493-1.917-.201-1.003-.85-1.649-2.081-2.274ZM315.49 506.208v-.023c-1.276-.513-2.216.111-3.134.868-.18 2.586 1.655 2.074 3.178 2.052.358-.98.403-1.939-.044-2.897ZM421.735 489.33c-1.276-.067-1.59 1.159-1.434 1.872.246 1.092-.001 2.942 1.947 2.787 1.164-.089 1.03-1.293 1.097-2.184-.134-1.093-.044-2.385-1.61-2.475ZM218.952 486.379c2.194-1.292.448-1.739-.582-2.297-.425.78-.851 1.561-1.276 2.363.648 1.828 1.41.201 1.858-.066ZM783.477 420.236c-2.752-2.654-2.976-2.654-3.985.043 1.321.201 2.663 2.096 3.985-.043ZM386.331 524.066c-.09.601.448.891.962 1.092 1.298.513 2.082.179 2.194-1.292-.581-.067-.984-.334-1.029-.959-.873.112-1.947-.089-2.127 1.159ZM111.081 482.192c.112-1.092-.515-1.582-1.276-1.65-1.432-.112-2.664.401-2.978 1.983-.112.602.515.959 1.052 1.048 1.41.29 2.574-.066 3.202-1.381ZM270.599 470.038c-1.88-.848-2.887-1.294-3.894-1.74-.403.133-.806.267-1.209.423 1.097 1.493 2.686 1.115 5.103 1.317ZM114.786 450.231c-.716.044-1.477.178-2.127.49-.335.155-.067.445.515.468.716.045 1.433.424 2.104-.133.112-.424-.067-.847-.492-.825ZM672.491 425.343c1.231.223.896-.914 1.187-1.493-.268-.602.09-1.717-1.163-1.494-.583.111-.941.534-.941 1.203 0 .78-.023 1.605.917 1.784ZM696.337 529.643c2.081 2.007 3.178 1.383 3.492-1.314-1.209.289-2.641-.001-3.492 1.314ZM525.68 454.999c-.582.446.716.981.985 1.605.246-.133.492-.267.738-.423-.066-1.159-.894-1.806-1.723-1.182ZM262.343 459.425c.471 0 .918 0 1.388-.022.001-.981.023-1.961.024-2.964-.694.044-1.388.111-2.082.155.335.936.962 1.783.67 2.831ZM534.364 457.878c1.456-.156.762-1.248.717-2.006-.738.089-1.477.155-2.193.244.223.803.223 1.895 1.476 1.762ZM195.948 465.485c-.022-1.003-.918-1.07-1.589-1.338-.112.958-.247 1.917-.359 2.875.962-.089 1.947-.222 1.948-1.537ZM225.405 467.435c-1.566-.513-2.887-.313-3.783 1.225 2.148 2.296 3.201 1.249 3.783-1.225ZM207.429 470.103c-.873-.089-.022.736-.157 1.114.985.447 1.97.67 3.045.403-.649-1.115-1.835-1.427-2.888-1.517ZM351.407 475.551c.738-.044 1.455-.088 2.171-.133.135-1.07.135-2.095-.827-2.831-.381.134-.649.022-.873-.29-.157 1.092-.314 2.162-.471 3.254ZM391.926 527.188c-.515-.156-1.231-.179-1.433.49-.224.802.134 1.427.918 1.761l1.164-.133c.649-.98.56-1.761-.649-2.118ZM376.438 521.343c-.649-.87-1.432-1.606-2.529-1.918-.672 1.582 1.141 2.251 1.297 3.522.918-.156 2.574.224 1.232-1.604ZM642.681 467.168c-.313-.557-.85-.736-1.32-.424-.515.335-1.478.49-1.165 1.449.067.2.649.334.985.312.806-.066 1.366-.467 1.5-1.337ZM267.394 481.493c.672.023 1.366.067 2.037.09-.022-1.382-1.276-.803-1.902-1.204.067.134.179.267.156.356-.067.268-.179.513-.291.758ZM357.063 495.391c-.314.245-.941.49-1.053.869-.179.668.582.824 1.052 1.003.604.201 1.074-.066 1.119-.713.045-.602-.313-1.025-1.118-1.159ZM336.821 511.253l-2.306-.001c.112 1.226.424 2.452 1.992 1.985.985-.267.246-1.293.314-1.984ZM313.423 467.022c-.023.29.358.892.47.87.783-.134 1.432-.512 1.634-1.404-.179-.245-.38-.691-.604-.713-.918-.134-1.455.378-1.5 1.247ZM535.198 443.033c.336.067.694.223 1.03.201.515-.022.672-.334.493-.802-.336-.111-.739-.379-1.008-.29-.246.111-.358.579-.515.891ZM77.14 437.824c-.292.156-.695.356-.74.601-.067.402.291.58.74.491.156-.29.313-.602.47-.891-.157-.067-.381-.246-.47-.201ZM238.948 528.602c1.186.134 1.433-1.047 1.657-1.983-.739.022-1.477.066-2.194.088.045.713-.448 1.783.537 1.895ZM203.809 514.502c1.723.246 2.418-.4 1.859-2.117a.919.919 0 0 1-.896-.067c-.134.29-.358.356-.649.223-.09.646-.202 1.314-.314 1.961ZM267.77 493.507c-.044-.646.157-1.56-.828-1.516-.828.045-.918.869-.918 1.582l1.746-.066ZM241.232 526.173c.089.112.336.134.515.134.492.023.716-.178.694-.601-.314-.112-.649-.357-.94-.29-.448.089-.538.445-.269.757ZM236.465 521.914c-.291 0-.738.29-.873.557-.246.535-.09 1.181.47 1.382.627.201.985-.334 1.187-.869.336-.802-.179-1.07-.784-1.07ZM767.667 496.726c1.746 1.004 2.015-.378 2.463-1.492-1.701-.915-2.462-.313-2.463 1.492ZM265.696 474.382c-.09-.668-.537-.958-1.164-1.048l-.27 2.296c.493-.423.963-.824 1.434-1.248ZM529.775 459.726c.157.045.627-.379.694-.668.202-.936-.358-1.383-1.231-1.539-.246.156-.492.29-.738.423.223.758.447 1.538 1.275 1.784ZM71.45 448.298c-.335-1.561-1.365-1.606-2.619-1.205.537 1.137.984 2.408 2.619 1.205ZM385.664 512.876l-.09.089c.045-.022.067 0 .09-.022v-.067ZM387.879 514.415c.09.624.179 1.226.268 1.828l1.344-.936c-.336-.758-.806-1.159-1.612-.892ZM386.067 511.361c.224.401.448.802.649 1.204-.022-.558-.067-1.093-.089-1.65a1.345 1.345 0 0 1-.56.446ZM386.717 511.004c0 .09.022.179.022.268l.089-.089c-.044-.045-.067-.112-.111-.179ZM255.039 476.986c.292-.535-.917-.758-1.611-.87-.202.223-.425.423-.627.646.716.803 1.701 1.205 2.238.224ZM542.607 383.903c.023 0 .045 0 .068.022.044.022.134-.2.134-.267s-.022-.112-.022-.156c0 .089-.045.156-.157.022.224-.49.224-1.025.023-1.605-.202.401-.202 1.025-.045 1.605v.044c-.247-.044-.403.179-.448.624.224-.2.358-.401.47-.601.045.223.022.29-.023.312ZM720.473 394.379c-.47.133-1.096-.402-1.186 1.158l.022.134c.291.067.582.156.895.223.604 1.249 1.253 1.962 2.193 2.163.627.134 1.903-.088 1.454 3.032-.157 1.07.671 2.942 1.745 2.586.045-.646-.223-1.025-.38-1.516-.134-.579-.246-1.248.068-1.627.112-.133.38.335.582.535.492.112.985.112 1.477.313.671.29.649-.267.582-1.315-.111-1.939-1.073-2.653-1.475-4.146-1.702 1.871-3.201-2.297-4.925-.582-.425.513-.649-.713-1.052-.958ZM175.446 397.54c-.223-.736.001-1.137.359-1.494.246-.245.94.892.672-.668-.089-.468-.313-1.917-.873-1.404-.671.623-1.544.333-1.544-.648-.021-3.766-1.544-2.474-2.461-3.165-.314 1.025.402 2.474-.247 3.209-1.075 1.226-.381 1.226.133 2.207.537 1.092.895 1.493 1.678 1.449 1.433-.089 2.171 1.628 2.237 4.57.135-1.448.449-2.719.046-4.056ZM74.224 392.442c-.112-.201-.268-.29-.537-.223.179.067.358.156.537.223ZM57.841 444.258c.202-.156.47-.646.516-1.025.112-1.694-.716-.981-1.074-1.449-.135-.178-.314-.29-.47-.424-.894-4.19-2.64-6.086-4.855-6.554-.336-.067-.672-.246-1.008-.38.045-.156.068-.312.113-.468.605-2.853.605-2.83-.514-3.901-.201-.178-.156-.49-.156-.847.023-.668.314-1.783-.492-1.516-1.12.357-1.59 1.538-1.39 3.789.067.646.134 1.271.448 1.026 1.075-.825.917 1.627 1.521 1.939.336 1.672.491 3.834 1.633 3.968 1.88.224 3.223 2.453 4.677 4.304.223.802.335 2.051 1.051 1.538ZM260.983 386.182l-.806.133c.067-.178.135-.401.157-.668.045-.558-.156-.847-.47-.691-.447.2-.806.601-.873 1.537-.941.156-1.903.289-2.843.445 1.678 1.761 3.29 1.383 4.835-.756ZM243.674 401.555c.559 1.694 1.32 1.07 2.641-.489-1.858.289-1.678-2.141-2.125-3.478-.851 1.069-.986 2.54-.516 3.967ZM753.403 391.07c-1.298-2.43-2.596-1.74-3.94-1.183 1.298 1.494 2.507 1.048 3.94 1.183ZM703.86 405.294c-.627.49-1.545 1.203-1.143 2.652.537 2.006 1.03-.044 1.5-.646.135-.178.336-.133.493-.2.268.446.581 1.337.783 1.248 1.209-.579 2.216.313 3.267 1.25.336.29.941.312 1.209-.067.135-.2.269-.356.381-.468-.022 0-.022-.022-.045-.044-1.588-1.873-3.424-1.985-5.125-2.9-.156-1.872-.761-1.248-1.32-.825ZM753.134 392.63c1.275.134 2.371 2.453 4.185.782-1.566-1.16-2.842-1.339-4.185-.782ZM400.682 397.736c-.514-.112-.627.891-.694 1.738-.09 1.315.268 1.783.895 1.783.537.246.895-.49.895-1.247.046-1.249-.469-2.14-1.096-2.274ZM405.114 400.59c.738.536 1.364 1.918 2.237 1.784.225-2.853-1.701-1.026-1.588-3.344-.224.223-.492.424-.672.736-.067.111-.022.78.023.824ZM564.051 385.605c.94.624 1.545 1.315 2.149 1.36.694.067.247-1.136.314-1.783-.716-.156-1.433-.312-2.463.423ZM68.218 411.296c.38.937.67 1.672.984 2.43-.09-1.003.694-1.337.56-1.916-.178-.981-.76-.758-1.544-.514ZM609.21 362.708c-.112-.133-.448.379-.672.58-.94.178-1.902.222-2.575 2.696.963-1.159 1.992 1.137 2.62-1.314.56-.357.917.379 1.365.869 1.723 2.007 1.812 1.918 3.023-2.205-1.321.534-2.575.868-3.761-.626ZM163.737 403.108c-.157-.112-.336-.045-.783-.09.134.468.178.624.201.78.268.914.559 1.717 1.186 1.516.112-.044.268-.468.268-.713.001-1.114-.492-1.204-.872-1.493ZM34.173 404.196c0-.981-.335-1.516-.693-2.007-.225 2.051-1.858.111-1.948 2.496.873-.423 1.835.915 2.641-.489ZM197.404 403.432c.313-.245.671-.69.515-1.493-.246-1.137-.559-.847-.94-.112-.224.446-.56.669-1.142 1.315.738.58 1.164.602 1.567.29ZM30.057 396.616c-.895-.112-1.41-2.185-2.394-1.383-.403.134-.873.089-1.232.401-.873.779-.918 1.693.022 2.496 1.521 2.497 2.373-1.069 3.604-1.514ZM187.245 393.71c-.315 2.474-.405 3.767.087 5.55.919-2.05.158-3.142-.087-5.55ZM502.614 362.29c-.291-.09-.381.445-.426.913-.067.424-.134.87-.202 1.293.224-.045.425.669.649.067.135-.401.225-.869.426-1.783.068-.223-.223-.424-.447-.49ZM274.038 374.752c-.134-.512-.156-1.671-.649-1.649-.671.022-.717 1.248-.695 2.229.022 1.225.537.958.94.847.336-.112.65-.334.404-1.427ZM75.131 361.215c-.112.646-.135 1.271.201 1.739.336.178.448-.268.493-.758.045-.624.18-1.649.045-1.805-.313-.402-.604.111-.739.824ZM288.857 372.462c-.201-1.426-.783-.736-1.231-.736a7.3 7.3 0 0 1 .135.379c.425 1.159 1.23 1.338 1.096.357ZM454.581 407.942c-.447-1.159-.357-2.697-1.14-2.631-.157.023-.448.736-.426.981.156 1.226.604 1.761 1.566 1.65ZM30.48 404.529v.111c-.023.736.044 1.204.178 1.449.045-.557.023-1.092-.178-1.56ZM2.824 432.982c.604.423.671-.624.918-1.226.582-1.359 1.21-1.493 2.015-.534.29.357.671.803 1.052.736.111.267.335.468.716.535 0-.468-.09-.847-.179-1.226.157-1.649-1.208-1.962-.827-3.745.336-.245.403-.601.292-.958.671-.067 1.052-2.028 1.79-1.537.247.356.583.535.515 1.337-.246.045-.47.223-.47.78 0 .223.134.424.224.646.067-.245.156-.468.224-.713.828-.735.359-2.184.449-3.298-.27.378-.717-.001-.94.579-1.658 1.493-1.769-1.472-2.372-3.099-1.051-2.854-1.051-2.854-2.843-1.606 1.097 1.293 1.097 1.293 1.476 3.723-.492-.023-.984-1.984-1.5-.001-.336.802-1.567 1.315-.112 2.608.604.535 1.186 1.315 1.767 1.472v.156c0 .312.023.624.022.936-.716.512-1.41.49-2.081-.224-.045-1.092-.134-2.028-.917-1.583-.336.201-.851.535-.717 1.048.156.624.671.936 1.029 1.382.09.468.268.981.223 1.382-.112.892-.515 1.872.246 2.43ZM41.62 366.619c-.247.089-.56.222-.471.802.044.379.313.847.514.959.269.134.493-.29.47-.87-.022-.557-.245-.824-.514-.891ZM296.063 379.352c.335.201.425-.245.492-.757-.156-.781-.357-1.516-.872-1.539-.269 0-.537.335-.538.847.022 1.048.492 1.226.918 1.449ZM373.73 401.47c-.134-.401-.291-1.493-.716-.58-.09.223-.001 1.026.133 1.338.224.446.537.691.806 1.003-.022-.602-.067-1.271-.223-1.761ZM194.836 386.982c-.179-.624-.47-.87-.828-.736-.247.089-.515.29-.404.936.134.713.493.78.806.647.224-.089.56-.067.426-.847ZM421.457 393.999c-.045 1.293.492 1.025.85 1.092.224.045.448-.155.672-.245-.045-.267-.045-.535-.112-.579-.38-.335-.738-.669-1.119-.914-.067-.023-.291.401-.291.646ZM191.62 365.249c-.111-.402-.29-.825-.492-1.026-.358-.357-.403.334-.425.758-.045.802.268 1.114.604 1.293.246-.201.492-.423.313-1.025ZM38.708 369.493c-.045-.022-.202.513-.202.78 0 .847.336 1.07.671 1.137.068.022.157-.468.224-.735-.066-.736-.357-1.048-.693-1.182ZM757.964 404.133c-.268-.089-.47.201-.537.713-.067.58.134.847.38 1.003.313.134.448-.289.515-.757.112-.647-.111-.892-.358-.959ZM227.569 369.742c.044.179.111.335.156.513.045-.223.112-.423.157-.646a4.278 4.278 0 0 1-.313.133ZM8.944 409.224c-.202-.469-.426-.045-.605.289-.18.446-.605.847-.157 1.427.201.267.425-.179.537-.624.224-.245.426-.624.225-1.092ZM191.506 371.556l.045.29.089-.245-.134-.045ZM625.841 366.838c-.067.089-.112.201-.179.29.044.111.111.201.156.312.067-.134.112-.29.179-.446-.045-.044-.089-.111-.156-.156ZM458.578 255.909l3.492.001c-1.297-2.252-.804-4.748-.579-7.044.225-2.384-.962-2.875-2.685-3.299.916 3.477.154 6.887-.228 10.342ZM15.71 334.044c-.314.134-.493.535-.74.825l3.493.001c-.09-.156-.157-.356-.291-.468-1.634-1.382 2.038-3.276.046-3.856-2.53-.737-.896 2.786-2.508 3.498ZM100.772 335.302c.604.535 1.096 1.093.782 1.984l3.492.002c-1.498-3.768-2.192-4.102-4.274-1.986ZM443.804 256.26c.179 1.181-.583 2.362.066 3.522l3.492.001c-.47-1.895.382-5.104-3.558-3.523ZM472.164 260.327c-1.88-.536-2.575.668-2.911 2.228l4.656.002c.963-1.939-.715-1.94-1.745-2.23ZM23.308 308.348c2.193.669 1.366-1.515 2.038-2.317l.202-1.471c-1.321-.046-2.642-.091-3.962-.158-1.634-.09-2.306-1.182-2.395-2.631-.133-2.118 1.882-2.607 3.136-3.409 1.007-.624 2.081.268 2.64 1.45.38.802.022 1.894 1.03 2.43l.313-.112.335.067-.022-.044c.472-4.213-.714-5.863-4.318-5.909-2.238-.023-3.604.378-4.388 1.47-.425.156-.672.401-.47.891-.314.825-.449 1.872-.427 3.232 0 .379-.023.78.044 1.159.358 2.207-2.06 4.702-.07 6.531 2.15 1.895 3.919-1.916 6.314-1.179ZM413.13 99.097c-.112-.557-.358-1.114-.313-1.671.338-4.882.159-5.216-4.049-7-.201-.09-.179-.692-.268-1.07l-2.977.132c-1.524 3.03-1.01 6.352-1.414 9.54 2.686-.512 5.418-1.96 7.991.381.157.111.694-.2 1.03-.312ZM575.524 184.537c-.851 1.337-.941 2.742-.538 4.235.402.713.827 1.427 1.252 2.14 1.903-.021 3.828-.021 5.731-.087.806-.022 1.791-.49 1.209-1.314-1.32-1.851 1.031-3.41.181-5.105-3.715-1.583-1.051-3.878-.669-5.906-.045-.558 0-1.137-.179-1.672-.223-.624-.492-1.538-.962-1.717-.738-.29-1.388.356-1.634 1.136-.224.713-.381 1.449-.561 2.162 1.543 4.949 1.073 5.707-3.83 6.128ZM109.591 159.25c-.268-.802-.223-1.315.829-.891.739-.178 1.791-.222 1.791-1.114-.021-2.34-1.364-4.658.227-6.998.179-.268-.336-1.026-.537-1.561-.38-1.003-.335-2.362-2.014-2.229-1.656.133-1.59 1.247-1.433 2.451.089.624-.269 1.047-.762 1.359-.537.691-1.097 1.382-1.635 2.072.806 1.271.604 2.43-.516 3.344-1.097.891-1.299 2.072-1.367 3.343.806.691 1.634 1.36.604 2.474 3.178 2.074 3.603 1.874 4.813-2.25ZM397.536 311.698c-.202 2.229-2.911 1.782-3.65 3.409-.717 1.515-1.567.935-2.418.155-1.141-.067-2.305-.201-3.447-.157-1.791.066-2.149 1.336-2.127 2.807.021 1.739 1.342 1.361 2.461 1.584 2.463.491 4.567-.377 6.739-1.224.202-1.003-.067-2.429 1.59-2.317.895.067 1.029.892.939 1.672l.157.045c1.635-2.34 4.903-1.291 6.761-3.207-2.261.734-3.289-2.097-5.394-1.875-.985.535-1.499.156-1.611-.892ZM117.133 203.359c.874-1.181 3.067-.422 3.538-2.383-1.208-1.472-2.506-2.854-3.58-4.37-.514-.736-1.23-1.293-1.79-.803-2.71 2.361-7.343 1.156-9.381 4.9a556.36 556.36 0 0 0 4.251 3.59c2.507 1.004 4.344-2.874 6.962-.934Zm-5.013-1.473c-.201-.691.425-.78.895-.712.291.044.538.401.784.601-.247.201-.493.424-.717.624-.358-.178-.895-.29-.962-.513ZM464.713 133.588c.312 1.605 1.655 2.987.983 4.77.067.892.111 1.805.245 3.722 1.366-1.961-.089-3.744 1.031-4.68 1.097-.936 2.351-1.671 3.538-2.495-1.342-3.388-1.587-6.843-.466-10.342-.761-.736-.918-1.65-.828-2.631.113-1.203.158-2.429-1.588-2.296-1.612.133-1.679.958-1.232 2.362.469 1.494-.113 3.076.155 4.747.335 2.14 1.363 5.284-1.838 6.843ZM775.979 180.2c-1.052.022-2.037-.536-1.768-1.494.807-2.897-2.013-3.523-2.864-5.217-2.303-4.637-3.402 1.269-5.126.266-.47-.268-1.096-.246-1.656-.38-.09.29-.246.557-.269.847-.022.089.157.223.269.334 1.119-.022 2.462-.155 1.633 1.628-1.031 2.251.828 1.806 1.88 2.141 1.723-.089 4.544-1.336 2.55 2.43-.313.579.045 1.493.336 1.427 3.335-.935 2.482 5.038 5.259 3.479 1.522-.847-.648-3.5-.244-5.461ZM759.527 175.87a2.116 2.116 0 0 0-.067-.067l.067.067Z"/><path d="M769.734 179.328v.112c.044 0 .067.022.111 0l-.111-.112ZM668.56 44.084l.045.067v-.045c-.022-.022-.022-.022-.045-.022ZM456.266 183.528c1.835.402 2.998 2.207 4.946 2.52 1.253 1.851.692 3.946.58 5.952 1.275.758 2.596 1.784 3.559-.356.067-.757.135-1.537.225-2.295-1.006-4.013-1.163-4.57-3.401-4.014-.134-1.248-.268-2.362-.38-3.454-.581-1.806-1.677-3.657.763-5.015 1.03-.557 1.434-1.404.426-2.207-.85-.691-1.745-.558-2.238.668-.314.825-1.075 1.003-1.881 1.025l-.001 2.206c.896.223 1.948.335 1.835 1.65-.09 1.07-.851 1.672-1.791 1.961-1.366.445-1.455-.714-1.791-1.539a32.434 32.434 0 0 0-.693-1.56c-2.866 1.425-1.971 4.056-.158 4.458ZM528.52 106.664c1.588 3.478.713 7.2.98 11.123 1.053-.446 2.149-.356 2.351-1.916.315-2.251.808-4.48 1.234-6.731-.85-1.784.583-2.452 1.613-3.321-.358-1.025.471-2.34-.917-3.187-1.477.712-3.044 1.38-4.5 2.205-.537.334-1.209.846-.761 1.827ZM609.529 228.616c-2.685-1.36-5.103-1.183-7.499.889-1.232 1.07-3.359 2.206-4.656 1.158-2.216-1.784-4.007.043-5.932-.092-.269.869-.158 1.716.178 2.541 2.686.046 5.417-.198 8.058.226 5.372.894 7.051.226 9.851-4.722ZM688.59 114.703c.493-.222.762-.891.449-1.448-.425-.78-1.343-.981-1.925-.514-1.702 1.315-3.56 1.515-5.597 1.18.29 2.251.737 4.547-.808 6.597-.001 1.56-.024 3.121-.024 4.681 2.148 1.628 3.402-.757 5.126-1.113-1.14-3.745-1.922-7.356 2.779-9.383ZM621.048 135.229c-2.978.69-2.911 2.83-2.017 4.88 1.454 3.3 2.527 6.8 4.877 9.654.358.133.738.29 1.096.424-1.409-3.367.428-6.91-.623-10.276a358.858 358.858 0 0 1-3.333-4.682ZM767.755 24.105c1.387 2.096-.226 4.636.915 6.754 4.522-.6 4.5-.6 4.501-4.969.001-.535.426-1.07.449-1.626.045-1.94 1.456-4.012-.379-5.818-2.641 1.113-3.158 4.256-5.486 5.66ZM618.774 109.997c-1.365-2.319-3.2-2.565-4.052-.225-1.075 2.92-2.777 5.26-4.748 7.532-1.411 1.627-1.636 3.722-.472 5.305.761 1.048.739-.602 1.052-1.069-1.14-2.542 1.859-2.117 2.464-3.41-.313-.691-.671-1.805-.044-2.006 1.88-.601 2.687-2.562 4.478-3.141-.246-1.27-.2-2.43 1.322-2.986ZM165.616 167.511l-.872-1.739c-2.104-.87-4.253-1.628-6.581-1.718l-.358.066a37.984 37.984 0 0 0-.023 1.583c1.164.156 1.365.936 1.432 1.939.111 1.784 1.029 1.561 2.104.737.067-.736.157-1.493 1.142-1.515.694-.022.851.602 1.052 1.092 1.051 1.828-.226 5.305 3.692 5.083.762-3.365.762-3.365-1.588-5.528ZM358.692 270.114c3.222 1.673 7.991-.242 10.116 4.283.224.446 1.791.268 2.753.38.09-.401.18-.824.292-1.226-.604-1.961-2.709-.981-3.827-1.94-.851.245-1.567-.023-1.701-.87-.112-.825.493-1.337 1.321-1.493-.179-.29-.134-.513.112-.736-1.768-.179-2.193-1.382-2.237-2.876a1.121 1.121 0 0 1-.963-.022c-1.232 1.604-2.955 1.492-4.679 1.313-.94.869-1.769 1.76-1.187 3.187ZM357.91 266.079h.044l-.044-.044v.044ZM656.393 77.469c-.381.735.29 1.538 1.141 1.582.805.045 1.343-.467 1.321-1.426-.044-1.872.001-3.722.002-5.594.09-1.025.583-1.56 1.679-1.381.56.111 1.231.468 1.657.268 1.052-.446.694-1.048-.089-1.516-.336-.2-.604-.49-.962-.647-1.343-.558-2.328-2.363-4.096-1.517-2.709 1.314.894 2.385.245 3.588-1.121 2.118.244 4.525-.898 6.643ZM308.547 277.139c1.656.357 3.76 1.428 4.746-.244.694-1.159-.089-3.009-1.051-4.614-1.32-2.229-2.393-4.325-5.057-5.039.447 3.299.893 6.598 1.362 9.897ZM73.65 193.599c-2.888-.58-4.454-1.74-4.118-4.57.09-.781-1.05-2.207-2.484-1.606-1.03.423-1.254 1.515-.65 2.429.65 1.026.738 1.962.715 3.21-.068 4.458.603 4.793 4.32 2.543.627-.379 1.097-.981 2.217-2.006ZM736.989 48.723c.291.067.537.09.783.09-.201.78.627 1.204 1.522 1.338.336-.156 1.388-.111.761-.758-.559-.58-.133-1.493-.491-1.694.089-.245.156-.513.201-.825.157-1.448.539-2.875.83-4.39-1.119-.803-2.283-.625-3.402-.603-1.142.022-4.59 3.81-4.367 4.924.514 2.296 2.618 1.583 4.163 1.918ZM399.722 272.113c-.782-2.586 3.851-1.403 2.889-4.1-2.037.467-4.476-1.183-6.201 1.112 2.327 2.943-.27 5.706-.339 8.582 1.119 1.003 2.373.87 3.649.38.067-.178.202-.335.202-.513.202-1.85.337-3.655-.2-5.461ZM330.398 268.32c2.328-.177 3.023-1.759 3.829-3.275 1.076-4.279-.758-8.47-.286-12.727-.134-.357-.224-.78-.448-1.07-.85-1.07-1.231-.268-1.097.445.559 3.277-.136 6.509-.138 9.741-.023 2.474-2.441 4.211-1.86 6.886ZM452.239 326.586c-1.612-.425-1.993 1.225-2.62 2.294 2.216-.422 4.791-2.316 5.976 1.451l3.156.536c-.917-1.761 1.053-2.183 1.546-3.298-2.506-1.583-5.394-.269-8.058-.983ZM645.412 168.561c-2.013-2.542 1.166-4.569.585-6.932-3.179-.269-1.882 3.053-3.628 4.88-.895-2.586-2.372-4.058-4.632-4.527-.091 3.344 4.587 3.836 4.407 7.335-.023.446 1.656.736 2.619.536.604-.134.985-.847.649-1.292ZM490.144 187.002c1.075.001 1.545-1.069 1.165-1.292-2.887-1.74-1.386-4.77-2.326-7.067-1.455.2-2.776.735-4.03 1.648-.694.513-1.007.936-.873 1.805.379 2.675 3.199 4.95 6.064 4.906ZM153.063 94.509a.568.568 0 0 1 .001-.646c-1.299.133-2.664.088-3.895.422-2.172.579-4.77 4.077-4.86 6.261-.023.78.133 1.538.894 1.917.828.424 1.455-.155 1.948-.712.493-.557 1.254-1.181 1.277-1.805.046-3.12 2.24-4.346 4.635-5.437ZM673.569 237.066c1.612-1.738 1.3-3.811.383-5.55-1.007-1.873-.939-3.633-.603-5.528-.716-.134-1.432-.268-2.171-.402-1.567.824-1.5 2.295-.762 3.365 1.477 2.141.446 3.901-.36 5.795 1.88-.266 4.141-1.09 3.513 2.32ZM535.291 75.796c-.626.066-1.276.133-1.902.222-.314 1.65-1.389 2.429-2.889 3.142-1.567.735-1.053 2.094-.203 3.298.895 1.271 1.701.648 2.821.291 4.208-1.358 2.575-4.3 2.173-6.953ZM573.462 243.225c2.35-.245 1.232-2.608 1.524-4.123-1.187-.446-3.022-.47-1.79-2.587-.045-.624.448-1.47-.47-1.783-.716-.245-.918.423-.873.914.111 1.092-.717 1.537-1.277 2.161.291.914 1.096 1.873-.359 2.541-.18 2.407 2.125 2.988 3.245 2.877ZM223.556 325.942c-1.992-1.538-3.604-.068-5.485.288 1.118 3.611 4.611 1.785 6.356 3.48 1.545-1.114.383-4.124 3.136-4.368-.201-.713-.313-1.471-1.343-1.382-1.276.111-.828 1.515-1.545 2.05.067.557-.157 1.226-.65 1.203-.514-.045-.648-.713-.469-1.271ZM471.854 132.81c-.225 1.093.693 2.386-.561 3.366 1.007 1.471.872 3.232 1.341 4.859.895-.111 1.813-.244 2.709-.355-.38-2.72-.759-5.439-1.139-8.181-1.096-2.051-2.081-1.115-2.35.311ZM140.349 153.66c1.79 1.204 3.76 1.695 5.931 1.317.113-2.675-.938-4.124-3.848-3.634.2 1.582-2.194.734-2.083 2.317ZM95.466 96.828c.045.802.09 1.582.134 2.385 1.61 2.029 3.133.959 4.678-.088.045-1.003.493-1.448 1.478-1.136-.201-1.382 1.098-2.83-.155-4.235-2.06.958-4.992.199-6.135 3.074ZM185.842 312.777c1.075-.244 2.239-.155 3.336-.221l.515-.178c-1.007-.469-2.037-.915-3.044-1.383-.784.066-1.545.111-2.328.177-.449 2.028-1.882 2.719-3.784 2.74 1.207 4.503 1.99 4.905 4.565 2.409-2.237-1.717-1.968-2.943.74-3.544ZM457.591 140.985c.067 1.583.134 3.188.223 4.77 1.925-.69 2.016-3.677 4.567-3.587-.111-.356-.246-.691-.357-1.048l-.805-2.741c.066 1.983-1.747 2.317-3.628 2.606ZM459.16 136.706l-.09.134.336 1.137a5.186 5.186 0 0 0-.246-1.271ZM725.971 181.496c.403-1.627-.604-2.563-2.081-2.787-1.679-.268-3.403-.269-5.104-.358-.157.847-.314 1.693-.448 2.54 1.992-.4 2.797 2.164 4.923 1.875 1.164-.178 2.351.157 2.71-1.27ZM690.3 151.771c1.298 2.074-.875 4.747 1.184 6.687 1.008-1.27 2.06-2.451 3.829-2.561-2.105.4-3.268-.18-3.111-2.609.135-2.14.987-4.525-1.296-6.197-2.127 1.314-.784 3.075-.606 4.68ZM651.053 50.72c1.03-.602 1.053-2.563 2.888-2.362.112-.58.225-1.181.314-1.76-1.118-1.495-2.439-1.718-3.939-.56-1.232.958-2.642 1.983-2.397 3.655.268 1.917 2.014 1.672 3.134 1.026ZM35.64 171.739c.292-2.407-1.61-3.144-3.558-3.612-1.03.289-2.328.4-1.948 1.96.357 1.382.223 2.92 1.252 4.102 2.149.424 3.962-.065 4.254-2.45ZM344.261 190.269c.246 1.761 1.544 1.36 2.641 1.093 1.567-.379 2.418-1.604 2.016-3.008-.403-1.383.068-2.185.874-3.054-.627-.245-1.253-.468-1.88-.714-.09 1.605.692 3.701-2.352 3.365-1.97-.223-1.455 1.248-1.299 2.318ZM692.849 40.683c.089.245.156.513.201.78-1.231-1.004-2.91-.09-4.611.912-2.911 1.738-5.576 3.81-9.247 3.852-.828 0-.358 1.204-.448 1.895 1.499.49 2.999.47 4.387-.31 3.113-1.76 6.224-1.246 9.335-.02.045-.177.089-.334.134-.49.627.58 1.433.692 2.306.358.246-.089.425-.223.559-.356.381.133.784.223 1.187.267-.247 1.27-2.508 2.072-2.464 3.655 1.925 1.048 3.626.625 4.5-1.09.425-.825.56-1.672.56-2.541.135 0 .291-.023.426-.023l1.411-2.874c-.917-1.583-1.947-1.138-2.932-.626-.179-.245-.38-.4-.604-.468.112-.111.201-.2.313-.334 1.501-2.05-.648-2.942-1.319-4.302-.089-.156-.067-.38-.112-.558-2.573-1.427-2.843.802-3.582 2.273Zm1.588 3.477c.269.112.582.201 1.007.224.246 0 .448 0 .649-.022-.268.178-.604.356-.783.534-.358-.044-.672-.267-.873-.736ZM246.441 185.373c.202.022.425.111.672.29l3.022-.266c.783-.424 1.992-.089 2.44-1.872-1.858.022-3.648-.871-5.081 1.113-.359.468-.717.668-1.053.735ZM241.964 184.792c0 .601 0 1.181-.023 1.783.829.111 1.411-.824 2.172-1.025-.716-.089-1.432-.647-2.149-.758ZM414.523 188.863c-1.724-.045-3.895-1.027-4.008 2.049.514 1.85 1.678 3.233 3.67 2.52 1.881-.668.113-2.273.315-3.432.023-.379 0-.758.023-1.137ZM441.947 254.743c.94-1.426-1.409-3.678 1.188-4.702-.559-1.427-1.543-3.478-2.731-.982-.851 1.805-2.396 2.852-3.225 4.501 1.993-1.18 3.201.693 4.768 1.183ZM75.502 88.752c-.044-.49-.425-1.115-.828-1.405-.783-.557-1.365.133-1.903.623-1.746 1.538-.65 3.9-1.68 5.661a1.28 1.28 0 0 1 1.007.313c2.418-.913 3.672-2.607 3.404-5.192ZM634.066 101.176c-.694.891-1.321 1.849-1.971 2.785 1.702-.623 4.163.916 5.172-1.781-.716-1.449-1.23-3.545-3.201-1.004ZM643.765 84.217c1.678 3.21-2.464 4.925-1.592 8.38 3.113-3.765 3.337-4.813 1.592-8.38ZM758.647 17.059c.783.512 1.723 1.315 2.395.201.762-1.27 1.21-2.764 1.636-4.19.224-.735-.022-1.694-.94-1.672-.649.022-1.298.646-1.948 1.002-.963 1.426.089 3.322-1.143 4.659ZM63.407 108.072c-1.948 1.492-3.515 2.852.402 3.834 1.052.268 1.947 1.182 3.133 1.249-.2-2.363-.871-4.414-3.535-5.083ZM283.316 106.171c.515 1.672 1.768 2.319 3.447 2.23.918-.044 1.835-.2 2.82-.311.113-1.984-1.253-1.828-1.834-2.475-1.186-1.315-2.664-1.004-4.074-.358-.224.111-.448.668-.359.914ZM484.85 216.801c.896-.245 1.12-1.069.896-1.783-.648-2.184-2.797-1.918-4.431-2.409-.425-.134-.784.646-.806 1.248.201 1.204 3.155 3.256 4.341 2.944ZM517.135 199.851c-2.171.645-4.186.288-6.246 2.048 2.619.759 4.656 1.161 6.246-2.048ZM196.451 198.415c.448-2.072.762-3.499 1.076-4.903.068-.802.113-1.627.18-2.429-2.753-1.495-2.574 1.18-3.291 2.406-1.367 2.295.581 3.165 2.035 4.926ZM761.015 328.173c-1.142-.023-.739 1.158-.874 1.827-.247 1.248.559 1.694 1.925 1.806.38-.423 1.343-1.047 1.276-1.493-.179-1.159-1.096-2.118-2.327-2.14ZM347.204 102.749c3.604.135 7.476.961 9.515-3.34-.493-.09-.963-.201-1.455-.29-2.709.6-4.658 3.208-7.724 2.917-.023.289-.112.535-.336.713ZM210.65 60.629c-1.097-1.227-2.439-1.45-3.939-1.361-.538 2.25-.83 4.1.087 5.95 3.335.158 3.56-2.249 3.852-4.59ZM325.188 194.697c-2.284-.603-2.843.088-2.845 3.498.762-1.069 1.904-1.537 3.135-1.782.112-.601.918-1.381-.29-1.716ZM360.713 192.504c-.313-.625-.649-1.227-.962-1.851-.783.067-1.589.133-2.373.178-1.366 1.091-1.478 2.585-1.411 4.167 1.746-.579 3.716-.623 4.746-2.494ZM121.271 111.192c-.225.914-.113 1.671.738 1.984 1.275.468 2.574.803 3.604-.601.896-1.248-.313-1.694-.94-2.051-1.253-.736-2.551-.625-3.402.668ZM736.744 223.449c.112-.134-.402-.937-.783-1.227-.626-.49-1.253.2-1.298.535-.225 1.605-.27 3.254-.383 4.881.852-1.694 1.524-2.986 2.464-4.189ZM162.643 276.437c-2.686-.246-4.768-.67-6.76.354 1.856 3.59 1.856 3.59 6.76-.354ZM15.024 74.442c.74-2.006 3.29-.712 4.388-2.205-1.836.2-3.447-.425-5.081-.493-1.59-.067-1.68 1.293-2.06 2.34.625 2.23 1.88-.11 2.753.358ZM780.827 204.051c.762-.646.963-1.827.426-2.541-.872-1.203-2.103-2.163-3.759-2.163-.605 0-1.008.289-1.254 1.136.201 1.405 1.387 2.319 2.573 3.211.626.446 1.365.914 2.014.357ZM776.772 273.86c-1.007-2.007-2.776-.982-5.104-.604 1.275 2.006 2.148 3.478 4.252 2.944 1.164-.29 1.143-1.738.852-2.34ZM291.487 164.594c.895 1.538-.695 3.41.872 4.681l-.023-.045c1.433.224 1.68-1.381 2.732-1.737-1.567-.135-3.447-.024-2.126-2.542-.425-.602-1.678-.781-1.455-.357ZM21.805 136.787c-.089-1.181-.603-2.43-1.812-2.163-.85.178-2.597.111-2.53 1.693.066 1.561 1.32 2.074 2.663 2.275 1.141-.111 1.768-.601 1.68-1.805ZM355.777 45.192c1.097-1.114 3.38-1.403 2.911-3.72-.179-.893-.761-1.205-1.969-1.139-1.903.245-1.971 2.229-2.419 3.744-.247.803 1.118 1.472 1.477 1.115ZM109.858 100.578c.247.089.47.111.717.134-.135-.179-.336-.29-.605-.223l-.112.089ZM120.535 103.524c-2.372-2.832-4.812-1.361-6.916-1.607.022.044.067.066.111.111 1.656 2.854 3.827 2.342 6.805 1.496ZM590.405 128.776c.805 2.831 2.439 4.124 4.072 5.418-1.006-1.762-.826-4.392-4.072-5.418ZM635.486 16.366c-.828-1.36-1.947-.714-2.821.155-.672.668-1.231 1.426-2.038 2.384 1.522.959 2.709.558 3.694.18 1.142-.423 1.858-1.582 1.165-2.72ZM33.492 131.576c-1.343-.157-2.708-.291-4.051-.447.067.646-.36 1.515.693 1.761 1.365.334 2.73.603 4.096.915v-.201c-1.12-.379-1.096-1.137-.738-2.028ZM601.138 279.254c-1.611-.156-2.977.401-3.023 2.407.537.646.425 1.382.268 2.095 1.769-.066 3.492-.199 3.471-2.607 0-.735-.044-1.827-.716-1.895ZM456.451 139.023a.443.443 0 0 0 .089.179l.09-.134c-.045-.022-.112-.023-.179-.045Z"/><path d="M454.884 138.911c.067.335-.112.736-.18 1.092.985-.334 1.635-1.47 2.821-1.225-.559-.958 1.143-2.874-.961-2.897-1.567-.023-1.971 1.514-1.68 3.03ZM496.353 166.387a1.063 1.063 0 0 1-.224-1.048c-2.351.49-2.777 2.785-4.053 4.278l.291-.2.291.178c2.171-.021 3.47-1.001 3.695-3.208ZM464.142 43.517c-.649-.848-1.163-2.074-2.842-1.83-.739.112-1.679.112-1.568 1.092.134 1.315.492 2.675 2.35 2.43.873-.11 1.925-.088 2.06-1.692ZM704.757 43.139c-.582-.736-.559-1.538-.313-2.385-1.297-2.386-3.29-1.071-5.058-.96.671 1.538 3.334 2.007 1.968 4.748-.538 1.07 1.611.67 2.596.78.269-.69.538-1.425.807-2.183ZM734.31 149.091c.716-.646 1.433-1.448.269-2.118-1.186-.691-.604-1.449-.469-2.251-.94.401-1.881.824-2.799 1.225.694.936 1.388 1.85 2.081 2.787a.983.983 0 0 1 .918.357ZM340.502 67.364c1.074-.133 2.35-.623 2.284-2.05-.067-1.381-1.32-1.671-2.797-2.185-.471.58-1.165 1.159-.919 2.229.179.87.089 2.162 1.432 2.006ZM675.893 247.899c2.418-.445 3.805.737 4.231-1.113.067-.334-.022-.913-.246-1.047-1.723-1.004-1.88.98-3.985 2.16ZM64.287 269.87c.605-1.872 2.978-3.12 1.927-5.549-1.903.266-.404 2.607-1.927 3.097-.425.824-.224 1.649-.023 2.452h.023ZM545.685 294.97c.045-.958-.783-1.249-1.566-.981-.65.222-1.702.712-1.724 1.091-.023.691.827 1.093 1.656 1.137.627-.289 1.589-.422 1.634-1.247ZM180.98 205.631c.314-.2.582-.445.806-.713-1.365.624-1.813-.134-1.969-1.315l-3.358-.002c-.202 1.07-.135 2.118.469 3.077l1.567-.067c.672-.735 1.389-1.314 2.485-.98ZM794.898 289.513c.045-.78.537-1.939-.962-2.118-.717 1.204-1.255 2.407-.113 3.678 1.141.068 1.052-.935 1.075-1.56ZM463.16 154.606l.067 1.515.022.067c.582.157 1.186.291 1.768.447.314-.357.627-.735.919-1.092-.694-1.471.001-2.965-.044-4.436-.493 1.493-.986 2.987-2.732 3.499ZM104.174 36.494c-1.119-.134-1.321 1.003-1.769 1.716-.067 1.07.738 1.404 1.388 1.248.761-.177 2.171.157 2.127-1.113-.022-.825-.828-1.739-1.746-1.85ZM212.945 88.558c-.515.468-1.254.668-2.015 1.047.805 1.583 1.723 1.717 2.708 1.695 1.007-.022 1.88-.155 2.082-1.403.112-.758.337-1.628-.357-2.096-1.007-.669-1.701.111-2.418.757ZM262.097 280.286c-1.634-.491-3.156-1.004-3.94 1.091 1.634.848 2.754-.021 3.94-1.091ZM658.513 212.497c.964-2.161 2.508-1.715 4.142-1.068l-.201-1.605h-1.858c-.157.913-.672 1.002-1.5.779-1.746-.469-2.172.579-2.239 2.028.582-.023 1.544.112 1.656-.134ZM619.443 116.974c1.723.624 3.201.758 3.828-2.027-1.701.311-2.753 1.024-3.738 1.871l-.09.156ZM772.079 252.438c1.723 2.408 3.357 2.431 5.999.671-2.44-1.383-4.074-1.116-5.999-.671ZM15.067 78.32c-1.567-.246-2.866.667-4.276 1.024-.09.156-.291.311-.291.467.088 2.742 1.992 1.339 3.066 1.138 1.231-.222 3.537-.355 1.501-2.63ZM654.06 91.042c1.365.29 1.03-1.36 1.903-1.649-.269-.045-.56-.09-.828-.112-1.119-.156-1.702.512-2.105 1.426.336.112.671.268 1.03.335ZM717.127 6.768c1.97-.29 4.387-.043 4.053-3.209-1.948.044-3.202 1.448-4.702 2.361.381.157.582.446.649.848ZM714.484 10.578c-.783-.09-1.567-.156-2.35-.224-1.523.668-1.814 1.916-1.188 3.254.336.758 1.276.58 2.037.402 1.97-.512 2.262-1.738 1.501-3.432ZM261.665 119.804c.403.089.582.334.537.735 1.589.179 3.358.737 4.097-1.982-1.723.2-3.491-1.026-4.634 1.247ZM720.299 203.895c1.029.022 1.365-.758 1.343-1.471a1.764 1.764 0 0 0-.29-.892c.738-.111.515-1.181.672-1.805-.336.022-.56-.111-.649-.424-.604-.156-1.209-.334-1.813-.49l-.246-.246.224.246c-.023.78.066 1.604.491 2.139-.112 0-.201-.022-.313 0-.851.134-1.344.624-1.545 1.381.335 1.048 1.074 1.539 2.126 1.562ZM455.257 157.813c.246.267 1.075-.045 1.634-.067-.201-.423-.514-.825-.604-1.27-.111-.558-.022-1.137-.021-1.694-.246-.469-.47-.937-.716-1.383-2.508 1.292-1.725 2.897-.293 4.414ZM196.876 319.023c1.79 1.115 3.134.291 5.439-.243-2.529-1.406-4.006-1.986-5.439.243ZM418.329 58.406c-.358 1.181.828 1.45 1.455 1.829.828.513 1.857.424 2.216-.735.336-1.137-.648-1.672-1.387-2.163-1.186-.802-1.522.49-2.284 1.07ZM186.394 275.176c-.403-.892.18-2.051-.783-2.809-1.59 1.649-.964 3.299-.136 4.948.09-.802.09-1.649.919-2.139ZM332.225 292.081c.537-.156 1.477-.289 1.254-1.27-.291-1.337-1.208-2.229-2.663-2.408-.739-.089-.918.557-.986 1.025-.224 1.649.671 2.43 2.395 2.653ZM546.246 291.627c2.731 1.16 3.626.714 3.963-1.96-1.679-.045-3.537-.47-3.963 1.96ZM88.364 291.99c-.739.646-2.753.043-2.284 1.737.313 1.115 1.657.135 2.552.202a207.31 207.31 0 0 0-.268-1.939ZM138.951 300.122c-.201-.825-.402-1.649-.581-2.497-1.679.044-4.499-.826-4.455 1.358.066 2.697 2.842 1.116 4.499 1.183.156.023.335-.022.537-.044ZM499.465 224.296c-1.5.356-3.425-.069-4.008 2.116 1.5-.223 2.933-.445 4.343-.667-.112-.491-.224-.981-.335-1.449ZM619.55 308.394c.761.245 1.478-.156 1.657-1.984.068-.847-1.32-.691-2.327-1.026-.739-.245-1.142.2-1.254.713-.359 1.538.894 1.962 1.924 2.297ZM268.957 312.229c-.134.669-.291 1.315-.426 1.984 1.209-.067 2.731.447 2.933-1.493.045-.49.023-1.27-.245-1.448-1.052-.58-1.612.378-2.262.957ZM478.665 234.764c.156 1.56 1.387 1.694 2.574 1.427.403-.089.672-.802 1.097-1.381-.94-.848-1.812-1.628-3.043-1.495-.269.022-.672.958-.628 1.449ZM729.254 320.738c.335 1.07 1.32 1.784 2.484 1.472.962-.111 1.768-.356 1.612-1.27-.224-1.382-1.074-2.407-2.663-2.141-.94.178-1.724 1.07-1.433 1.939ZM2.269 121.891c-.179-1.249-.626-2.074-2.126-1.74-.85.2-1.522.668-1.142 1.426.47.937 1.051 2.074 2.394 1.963 1.075-.201.986-.869.874-1.649ZM174.811 121.822c-.246.936-.135 1.738.246 2.474-.09-.78.425-1.761-.246-2.474ZM176.131 123.226c.045.335.202.625.604.87a6.8 6.8 0 0 1-.604-.87ZM126.426 194.804c-.357-1.293-1.477-1.026-2.327-1.205-.761-.156-1.701-.067-1.836.847-.18 1.315.872 1.56 1.88 1.405.828-.111 1.97.223 2.283-1.047ZM-2.288 36.276c.09.914.962 1.137 1.746 1.048.873-.089 1.97.18 2.62-1.737-.94-.224-1.657-.492-2.396-.536-.895-.023-2.126-.268-1.97 1.225ZM230.979 109.584c1.299.067 1.903-.535 2.083-1.538.179-.98-.089-1.872-1.186-2.118-1.209-.29-1.657.49-1.702 1.515 0 .847-.291 1.873.805 2.141ZM391.845 147.246c1.5-1.047.068-2.474.539-3.655.134-.357-.582-.981-1.231-.825-.291.066-.762.534-.717.712.335 1.293-.874 3.21 1.409 3.768ZM626.567 162.468c-1.612-.535-2.687.111-2.799 1.716-.113 1.671 1.253 1.516 2.394 1.427.135-1.047.27-2.073.405-3.143ZM780.468 266.193c1.276.068 1.59-1.158 1.433-1.871-.245-1.093.002-2.943-1.946-2.787-1.164.088-1.03 1.292-1.098 2.184.134 1.07.022 2.385 1.611 2.474ZM174.672 14.766c-.022-.624-.246-.713-.671-.267-.605.601-1.948.445-1.836 1.938.425.156.94.535 1.387.469 1.343-.133 1.165-1.203 1.12-2.14ZM203.994 319.939c-.537-.334-1.231.133-.985.691.246.579 1.007.914 1.499 1.338.336-.201.604-.334.851-.468-.448-.513-.806-1.204-1.365-1.561ZM422.712 331.099c-1.321-.201-2.663-2.096-3.985.043 2.73 2.654 2.976 2.654 3.985-.043ZM496.159 86.124c-.179-.714-.492-1.539-1.432-.937-.336.223-.538 1.047-.382 1.448.313.847.895 1.583 1.566 2.72 1.031-1.493.471-2.362.248-3.231ZM588.057 4.245c.224-1.047.717-2.05 1.076-3.053-2.44.244-4.903.488-3.539 4.033 1.052.268 2.104.692 2.463-.98ZM172.147 300.758c-.134-.066-.738.357-.716.491.223 1.226 1.006 1.895 2.215 2.007.291-.223.829-.446.806-.624-.089-1.382-1.387-1.427-2.305-1.874ZM300.09 27.362c.627-1.27-.604-1.56-1.455-1.739-.47-.09-1.029.245-1.544.378l.179.313-.202.29c.291.245.604.445.85.713.716.802 1.612 1.204 2.172.045ZM651.841 217.777c.514 1.583 1.902.001 2.887-.021.538.001 1.075-.4 1.59-.601-.201-1.226-1.231-1.182-2.126-1.383-.941.535-2.776.713-2.351 2.005ZM526.803 326.636c0-.78.023-1.605-.917-1.784-1.231-.223-.896.892-1.187 1.493.268.602-.09 1.716 1.163 1.494.582-.111.941-.535.941-1.203ZM503.943 221.756c-2.082-2.006-3.179-1.383-3.493 1.314 1.209-.311 2.664-.021 3.493-1.314ZM671.331 296.533c-.247.133-.493.267-.739.423.067 1.181.895 1.806 1.723 1.182.582-.446-.716-.981-.984-1.605ZM665.556 294.68c-1.455.156-.761 1.248-.717 2.006.739-.089 1.477-.155 2.194-.244-.224-.803-.246-1.895-1.477-1.762ZM484.808 210.538c-.201-.58-.604-.937-1.231-.87-.806.089-1.478.534-1.254 1.404.067.267.985.424 1.522.446.559.023 1.119-.2.963-.98ZM117.04 291.131c-.448-.045-.918.245-1.388.401.089.312.111.624.223.646.873.268 1.746.514 2.641.67.157.022.605-.512.605-.757-.089-1.538-1.298-.893-2.081-.96ZM765.138 198.629c.693 0 1.365-.2 1.5-1.136.134-.847-.201-1.605-.962-1.806-1.052-.29-1.903.222-1.971 1.359 0 .736.448 1.404 1.433 1.583ZM288.803 277.889c.001-1.56.337-3.276-1.811-3.834l-.001 2.764c-.023 1.404.805 1.404 1.812 1.07ZM59.988 272.075c-.023-.468-.269-1.115-.627-1.316-.581-.312-.984.112-1.03.981.157.312.269 1.003.65 1.181.648.335 1.051-.267 1.007-.846ZM368.09 219.632c-.023.535.201.892.514 1.182.381-.312.493-.735.516-1.226-.358-.557-.694-.579-1.03.044ZM369.97 220.658a5.393 5.393 0 0 1-.672-.512c-.089.066-.179.133-.291.2.202.624.425 1.226.626 1.85.583-.423 1.411-.846.337-1.538ZM170.823 191.964l-1.142.267c.112.87-.359 1.939.76 2.475.224.111.828-.134.985-.379.583-.936.359-1.761-.603-2.363ZM310.683 192.908c.672-.49 1.343-.98 2.037-1.448a89.607 89.607 0 0 1-.648-2.296c-.56.424-1.12.869-1.702 1.292.09.803.201 1.628.313 2.452ZM469.913 114.042c-.089-.847.046-1.828-1.185-1.962-1.164-.134-1.277 1.003-1.881 1.537.94.647 1.969.714 3.066.425ZM750.466 104.028c-1.388.2-.985 1.315-.986 2.184.605.067 1.12.268 1.366.892 2.283-.021.828-1.426.829-2.251-.022-.691-.649-.914-1.209-.825ZM682.551 102.665c-.627.022-.56.736-.627 1.226.156.468.067 1.226.917.892.269-.112.471-.602.516-.936.045-.557-.201-1.204-.806-1.182ZM324.257 169.376c-.448-.067-.851 0-1.097.735l.089.089c.605.001.851-.378 1.008-.824ZM326.272 168.307c-1.142-.29-1.142.78-1.433 1.604.425.067.873.29 1.253.179 1.545-.423 1.187-1.515.18-1.783ZM528.481 148.657c-1.947-.135-2.82.155-2.91 1.314-.068 1.092.895.936 1.522.914.806-.022 2.014.313 1.992-1.136.001-.891-.738-1.092-.604-1.092ZM84.061 126.245c-.022-1.003-.67-.423-1.119-.379l-.335-.134-.023.357c-.246.49-.515 1.136.156 1.337.94.29 1.344-.334 1.321-1.181ZM451.479 26.238c.224-.067.47-.58.47-.87-.022-.824-.402-1.493-1.342-1.36-.582.09-.829.624-.784 1.226.29.78.85 1.204 1.656 1.004ZM443.981 83.14c-.09.512-.269 1.07-.247 1.626.022.49.448.625.873.402.672-.356.426-.936.314-1.47-.112-.491-.38-.67-.94-.559ZM91.532 82.316c.045 0 .067-.022.112-.022 0-.022-.022-.045-.022-.045l-.09.067ZM93.278 83.61c.402.267 1.096.223 1.611.134.18-.045.426-.669.381-.98-.2-1.07-1.074-.781-1.813-.715-.335.045-.694.134-1.03.2.291.469.448 1.093.85 1.36ZM11.942 55.45c-.067-.959-1.007-.87-1.925-.982-.47.357-1.925-.401-1.635 1.248.134.825.739 1.226 1.634 1.182.985-.066 2.015-.155 1.926-1.448ZM85.168 99.41c.403.379.739.847 1.209 1.114.447.268 1.03.357 1.544.514.045-.357.112-.691.18-1.048-.896-.602-1.679-1.583-2.933-.58ZM321.928 171.426c-1.365.133-2.305-.937-3.469-1.339l-.224.29-.336-.112c1.321.446 2.305 2.341 4.029 1.161ZM321.099 172.674c-.067.044-.112.066-.179.111.09 0 .179 0 .269-.022l-.09-.089ZM76.156 134.891c-.492-.513-.917-1.16-1.499-1.539-.47-.312-1.186-.023-1.164.601.044.914.94 1.071 1.656 1.294.336-.111.671-.223 1.007-.356ZM5.212 94.141c-.918-.067-1.41.557-1.68 1.27-.336.87.493.825.94.892.761.09 1.59.023 1.702-.98.067-.602-.29-1.07-.962-1.181ZM158.792 40.571c-.269-.713-.918-1.226-1.768-1.204-.694.022-.941.513-.986 1.137.224 1.092 1.075.87 1.791.825.38-.044 1.298.156.963-.758ZM168.678 299.264c.135-.557-.716-.491-1.163-.602-.717-.023-1.523-.179-1.724.779-.113.535.156 1.181.76 1.204.963.023 1.903-.445 2.127-1.381ZM559.478 285.257c-.806.044-1.366.468-1.5 1.314.313.558.85.736 1.32.424.515-.334 1.478-.489 1.165-1.448-.067-.178-.649-.312-.985-.29ZM607.561-14.114c-.695 1.805-.628 3.32 1.005 5.394-.491-2.162 1.949-3.855-1.005-5.394ZM743.287 26.191c-.044-.423-.648-.847-1.096-1.16-.492-.334-1.007-.222-1.388.29.067.825.559 1.316 1.343 1.427.492.112 1.208.045 1.141-.557ZM97.438 31.61c.27-.69-.156-1.114-.716-1.226-.671-.134-1.007.29-1.32.713-.291-.268-.605-.535-.94-.78-.38-.268-.806-.112-.829.311-.022.624.425.914 1.03.959.156-.045.29-.089.447-.134-.022.045-.044.067-.067.112-.694.847.313.758.604 1.003.94.223 1.5-.2 1.791-.958ZM768.272 18.355l.404-2.073c-.269-.646-.649-1.873-.806-1.85-2.328.378-.247 2.63-1.434 3.722-.201.2 1.209.045 1.836.2ZM295.486 7.835c-.895-.09-1.366.535-1.657 1.248-.471.802.179 1.114.649 1.204.895.178 2.059.468 2.328-.847.135-.78-.425-1.515-1.32-1.605ZM78.572 139.216c.694-.2 1.344-.557 1.3-1.404 0-.134-.605-.245-.896-.335-.873.045-1.433.691-1.59 1.315-.112.468.716.58 1.186.424ZM.627 322.694c.111.825-.516 2.095.961 2.162.94.045.963-.958 1.165-1.649-.694-.156-1.41-.335-2.126-.513ZM751.824 183.089c.336.735-.068 1.983 1.186 2.05 1.298.068 1.142-1.047 1.232-1.894a85.269 85.269 0 0 0-2.418-.156ZM204.769 282.137c-.425.044-.761.602-1.12.891.157.468.269.78.381 1.092.403-.334.895-.601 1.209-1.002.403-.535.157-1.07-.47-.981ZM265.337 297.606c-.426.201-.896.735-.941 1.159-.067.602.47.847 1.141.669.426-.2 1.075-.289.919-1.047-.112-.58-.492-1.092-1.119-.781ZM785.965 173.049c.157 0 .448-.49.403-.713-.045-.29-.291-.602-.559-.758-.112-.067-.448.245-.672.401.089.512.134 1.092.828 1.07ZM47.013 308.245c-.089-.646-.2-1.293-.29-1.961-.448.111-1.276.178-1.276.356-.157 1.092.85 1.248 1.566 1.605ZM662.439 308.944c.336.112.739.38 1.007.291.247-.089.336-.58.516-.87-.336-.067-.694-.223-1.03-.201-.515-.022-.672.312-.493.78ZM694.755 33.239c-.269-.58-.851-.536-1.388-.402-.493.111-.65.4-.717.245.537 1.27 1.097 1.315 1.589 1.026.269-.156.605-.691.516-.87ZM92.615 59.715c-.29-.111-.56-.312-.828-.312-.448 0-.56.312-.269.669.09.111.336.245.425.178.247-.111.448-.334.672-.535ZM229.804 81.03a1.084 1.084 0 0 1-.246-.69c-.56.312-1.814.355-1.277 1.247.537.892 1.142 0 1.523-.556ZM222.029 100.04c-.247 1.828.559 2.675 2.417 2.52.358-1.939-.134-3.098-2.417-2.52ZM18.568 113.159c-.649.067-.918.736-.761 1.204.38 1.315 1.41.535 2.193.558-.134-.847-.066-1.917-1.432-1.762ZM600.96 39.712c.246.134.895.112.962-.044.448-.825-.402-1.248-.715-1.85l-.403.133-.358-.2c-.023.713-.292 1.515.514 1.96ZM9.201 140.304c.202-.691-.313-.914-.85-1.092-.76-.246-.85.423-1.052.869-.359.735.246.847.492.936.873.178 1.253-.178 1.41-.713ZM474.848 148.057c.246 0 .515-.378.761-.601-.179-.245-.336-.669-.56-.714-.313-.067-.917.067-.962.245-.179.579.134 1.07.761 1.07ZM593.196 149.328c-.291-.023-.873.423-.851.512.201.691.29 1.538 1.23 1.583.65-.044 1.232-.133 1.209-.847-.044-.913-.782-1.203-1.588-1.248ZM277.298 156.787c-.471 2.095.447 2.742 2.417 2.297-.179-1.427-.335-2.853-2.417-2.297ZM518.639 129.707c-.94-1.115-1.612.936-2.619 1.114.358.134.716.379 1.052.379 1.029-.022 2.373-.556 1.567-1.493ZM452.932 149.119c-.268-.803-.111-1.783-.961-2.319-1.03 1.337-1.77 2.541.961 2.319ZM110.499 243.296c-.202-.245-.649-.268-.985-.379-.47.156-.717.534-.47.891.179.245.693.357 1.052.335.514-.044.716-.468.403-.847ZM463.226 158.863l-1.231.066c-.225 1.382-.203 2.697.893 4.169.314-1.627.785-2.897.338-4.235ZM572.406 74.138c-.045-.357-.246-.69-.358-1.047-.582.222-.649.735-.694 1.27.156.334.358.98.492.98.671-.11.649-.712.56-1.203ZM579.126 1.3c-1.298.043-.671 1.069-.873 1.67 1.701.18.851-.98.873-1.67ZM489.994 51.082l.089.112c.045-.022.067-.023.112-.045l-.201-.067ZM491.986 49.88c.023-.045-.201-.313-.246-.313-.425.178-.828.379-1.253.58.537.178 1.074.401 1.499-.267ZM67.231 117.123c-.536-.892-1.118-1.65-2.327-.959.47 1.092 1.387 1.048 2.328.959ZM430.552 257.347c1.678.892 2.44.29 2.463-1.493-1.746-1.003-2.038.356-2.463 1.493ZM207.796 329.815c-.291-.045-.627.178-.941.289.179.246.313.535.537.692.381.267.716.133.918-.29-.179-.245-.313-.669-.514-.691ZM669.743 292.832c-.157-.044-.627.379-.694.669-.202.936.357 1.382 1.23 1.538.246-.156.493-.29.739-.423-.201-.758-.447-1.516-1.275-1.784ZM253.312 309.393c-.202.312-.538.601-.56.913-.023.29.29.602.447.914.202-.267.537-.557.537-.824.023-.335-.268-.669-.424-1.003ZM766.733 181.422c-.268.156-.515.334-.783.49.425.179.872.424.783-.49ZM765.501 183.472l.09.112c.022-.022.045-.022.089-.045a.363.363 0 0 0-.179-.067ZM658.512 216.732l.224-.178-.224-.178v.356ZM724.338 176.592c1.724-.757 3.359-1.671 5.172-2.561-.626-.981-1.23-1.739-1.633-2.587-.47-.958-1.029-1.605-2.171-1.204-1.007.356-1.925 1.359-1.635 2.095 1.096 2.875-1.254 1.916-2.329 2.339.425 1.248.716 2.72 2.596 1.918ZM717.69 175.185l-.134.112c.045-.023.09-.023.157-.045-.023-.022-.023-.045-.023-.067ZM714.176 174.582c0 .045-.022.089-.022.134l.134-.112c-.045 0-.089-.022-.112-.022ZM715.901 171.284c-.783-1.115 1.434-3.387-1.409-3.589-.38-.023-1.074.022-1.097.133-.314 1.538-.471 3.165.379 4.547.313.513 1.253.67 1.925.96.134-.736.515-1.627.202-2.051ZM736.825 186.672c-.604-.001-1.231.021-1.835.021.626 1.449 1.231.446 1.835-.021ZM655.387 372.578v-.045c.246.045.402-.178.447-.624-.223.2-.358.401-.47.602-.067-.245-.022-.312.023-.335-.023 0-.045 0-.067-.022-.045-.022-.135.201-.135.267 0 .067.022.112.022.157.023-.067.045-.134.18 0-.247.468-.247 1.002-.046 1.604.202-.401.18-1.025.046-1.604ZM306.112 316.889c-.068.379-.112 1.025-.403.669-.068-.067-.067-.245-.09-.446.269-.334.538-.802.784-1.404.112.424.134 1.159.47.357 0-.023-.223-.424-.335-.647-.358-2.407-.94-.825-1.478-.468-.447-.981-.894-1.962-.468-3.143.873-2.474.045-2.252-.716-2.452-.873-.246-1.164 1.047-1.5 2.206.313.111.783.022.917.401.224.624-.202 1.137-.448 1.337-.605.468-.515-.847-.761-1.315-.246-.134-.514-.245-.761-.379-.491-2.029 1.837-2.407.741-4.792-.516 2.006-1.635 2.607-2.374 4.078-.628 2.875-1.099 3.878-2.129 4.524 4.03-.244 4.03-.244 5.865 1.696-.538.981-1.053 1.894-1.546 2.808.694.424 1.141 2.43 1.745 3.522.089.156-.045.691.022.959.357 1.426.849 2.296 1.589.914 1.568-2.919 3.358-1.915 5.126-1.224.582.223.358 1.338.514 2.029l-.112.022.045.089c.56-.379 1.366-.334 1.433-1.671.09-1.449-.715-1.538-1.252-1.917-.403-.268-.806-.491-1.209-.736-.246-.691-.246-1.427-.156-2.207-.827-2.697-1.923-3.879-3.513-2.81ZM170.922 344.49a6.22 6.22 0 0 0-.179.601c-.045.223-.157.847.112.58.201-.223.38-.357.537-.468a2.46 2.46 0 0 1-.47-.713ZM176.109 362.613c.38.423.805.602 1.253.646-.246-.624-.537-1.137-1.253-.646ZM479.716 357.377c-.492-.111-.985-.112-1.477-.312-.672-.29-.65.267-.583 1.315.111 1.939 1.074 2.652 1.476 4.146 1.702-1.872 3.2 2.297 4.925.581.47-.468.693.758 1.074.981.47-.133 1.096.402 1.186-1.158l-.022-.134c-.291-.067-.582-.156-.895-.223-.604-1.249-1.253-1.962-2.193-2.163-.627-.134-1.903.088-1.454-3.032.157-1.07-.67-2.943-1.745-2.586-.045.646.223 1.025.38 1.516.134.579.246 1.248-.068 1.627-.112.111-.403-.357-.604-.558ZM268.437 327.341c.649-.69 2.015-1.448 1.703-4.145.94-.913-.312-4.97 1.68-4.502.224.045.157-.802.046-1.248-.157-.557-.56-.602-.649-.312-.673 1.783-2.128 1.203-2.643 3.476.895.134 1.589.602 1.431 2.697-.806.758-1.545 1.516-2.26-.468-.403-1.137-1.119-1.36-1.97-1.16a34.52 34.52 0 0 1 .288 8.715c-.135 1.293.201 2.318.716 2.028.806-.467 1.298-.133 2.014.648.47.513 1.321-.557.941-2.742-.694.669-1.366 1.293-2.038 1.917-1.162-3.277-1.073-2.965.741-4.904ZM136.902 331.304c-.469-2.051.091-3.745.517-5.394.605-2.251.136-5.216-1.072-5.996-.291-.179-.94.111-.806.356 1.096 1.984-.382 2.318-.606 2.764-.761 1.649-.851 2.362.088 4.101 1.029 1.962 2.237 4.347 1.609 7.802.18-1.137.583-2.318.27-3.633Zm-1.252-3.723c.067-.134.134-.245.179-.356.067.223.134.445.157.69.022.09-.112.223-.157.335a7.526 7.526 0 0 0-.179-.669ZM7.782 343.804c.134.936-.36 2.118.245 2.764.56.602.65-.356.829-1.159.157-.69.47-1.203 1.007-.623 2.126 2.274 2.148 2.252 4.768-.623-1.186.045-2.282-2.296-2.931-1.962-1.097.557-2.15.423-3.202.645-.358.089-.917-.468-.716.958ZM-6.519 335.106c.895.312 1.97 1.383 2.619.759 1.791-1.738 3.985-1.648 5.464-4.701.425-.891 1.746-.222 1.366-2.206-.313-1.627-1.388-.446-2.126-.759-.403-.178-.583.669-.516 1.36.134 1.449-.314 1.225-.806 1.693-1.142 1.092-3.2-2.118-3.516 2.741-.246-.067-.492-.112-.738-.224-.56-.312-1.142-.669-1.747 1.337ZM119.624 323.563c.224.446.425 1.092.044 1.716-.291.446-.493 1.56-.247 1.672 1.724.825.782 4.681 1.901 6.086.336-1.873.046-3.656-.2-5.439-.402-2.898-.402-2.92 1.411-2.206-.156-.602-.268-1.538-.491-1.672-1.388-.87-2.036-2.854-2.17-5.529-.851.513.021 4.235-1.635 2.764-.022-.023-.986 1.894-.471 3.254.425 1.137.694-.089.985-.58.246-.468.582-.646.873-.066ZM331.848 341.229c2.058 2.386 3.895.091 5.82-.087.246-.022.537-.067.739-.312.515-.557.762-1.627.583-2.607-.223-1.293-.828-.692-1.343-.536-.672.223-1.053 2.429-1.389 2.006-1.834-2.431-2.866 2.116-4.41 1.536ZM19.201 335.851c-.76-1.114-1.679.022-2.507-.357-.179-.09-.582.69-.74 1.225-.223.78.247 1.093.426 1.605.536 1.472 1.297 1.405 1.678.135.404-1.293.717-1.56 1.322-.869.09-.646.067-1.382-.179-1.739ZM38.845 363.453c.38.29.85.334 1.275.201.851-.312 1.366-1.092 1.12-3.12-.178-1.36-.379-2.519-1.184-2.854-.068.312-.247.691-.202.87.536 2.073.625 3.677-.92 3.944-.134.023-.29.335-.403.602-.157.379-.246.825-.38 1.226.268-.178.156-1.293.694-.869ZM23.474 342.317c.135-.535-.224-.758-.425-1.048-.581-.869-1.119-.781-1.634.2-.426.758-.493 1.716-.493 2.742.626 1.203.962-.089 1.365.089.94.468.94-1.069 1.187-1.983ZM452.36 360.911c-1.297-1.494-2.506-1.048-3.939-1.183 1.298 2.408 2.574 1.717 3.939 1.183ZM495.234 344.232a3.087 3.087 0 0 1-.381.468c.022 0 .022.023.045.045 1.588 1.873 3.424 1.985 5.125 2.9.178 1.872.805 1.248 1.343.825.626-.49 1.544-1.203 1.142-2.652-.536-2.006-1.03.044-1.5.646-.134.178-.336.133-.492.2-.269-.446-.582-1.338-.783-1.248-1.209.579-2.216-.313-3.268-1.25-.358-.29-.963-.312-1.231.066ZM449.048 358.748c-1.276-.134-2.372-2.453-4.185-.782 1.589 1.16 2.864 1.339 4.185.782ZM794.806 353.974c.067-.112.023-.78-.022-.825-.761-.535-1.365-1.917-2.238-1.784-.225 2.853 1.701 1.026 1.588 3.344.224-.245.493-.423.672-.735ZM635.489 366.953c-.94-.624-1.545-1.315-2.149-1.36-.694-.067-.247 1.136-.314 1.783.716.156 1.41.312 2.463-.423ZM157.224 340.829c-.158 2.608-1.322 3.276-1.032 6.196 1.053-1.538 2.329-1.96 1.032-6.196ZM316.57 371.826c.425.134.739.268 1.052.357.403.112.94.268.918-.869 0-.802-.358-1.516-.895-1.159-.358.245-.851.2-1.075 1.671ZM598.119 390.098c-.962 1.158-1.991-1.138-2.619 1.314-.56.356-.918-.379-1.365-.87-1.723-2.007-1.813-1.918-3.023 2.205 1.321-.489 2.597-.846 3.761.648.111.134.447-.378.671-.579.941-.2 1.903-.222 2.575-2.718ZM695.069 389.354c.067-.423.134-.869.201-1.293-.223.045-.425-.669-.649-.067-.134.401-.224.869-.426 1.783-.067.223.224.424.448.468.291.112.358-.423.426-.891ZM744.198 344.615c.447 1.16.357 2.698 1.14 2.631.157-.022.448-.735.426-.981-.156-1.225-.626-1.761-1.566-1.65ZM3.101 350.244c.403-1.293 1.254-1.047 1.635-2.206.179.045.38.089.56.112.09-.424.224-.825.29-1.271.136-.869.517-2.162-.155-2.429-.649-.268-.694 1.047-.672 2.072-.336.201-.828.201-.963.602-.65 2.273-1.68 2.941-3.202 2.562 1.007 1.962 1.79 2.787 2.507.558ZM311.039 377.619c.246-.044.515-.311.448-.846-.134-1.093-.537-1.583-1.119-1.45-.246.045-.425.357-.47 1.137.201.847.581 1.271 1.141 1.159ZM86.216 349.25c-.313.29-.56.668-.538 1.449.023.557.224.936.47.958.739.09.426-1.047.449-1.694.022-.312.045-1.114-.38-.713ZM777.434 357.69c.381.334.739.669 1.119.914.067.045.269-.401.291-.624.046-1.293-.492-1.026-.85-1.093-.224-.044-.448.156-.672.245.045.268.045.513.112.558ZM224.082 356.055c.537.491.94.023 1.343-.311-.425-.402-.828-.758-1.343-.224-.179.201-.179.357 0 .535ZM440.188 348.915c.067-.58-.134-.847-.381-1.003-.313-.134-.447.289-.515.757-.112.624.112.87.358.937.269.089.47-.179.538-.691ZM572.155 383.958c.068-.089.112-.2.18-.289-.045-.112-.112-.201-.157-.312-.067.133-.112.289-.179.445.045.045.112.089.156.156Z"/></g><defs><clipPath id="a"><path fill="#fff" d="M0 0h794v520H0z"/></clipPath></defs></svg>