<svg width="859" height="789" fill="none" xmlns="http://www.w3.org/2000/svg"><path d="M57.297 373.621c-8.39-4.746-16.546-9.926-25.22-14.132-13.929-6.754-20.29-19.076-12.713-34.538 5.455-11.131 14.136-19.254 21.056-28.91 1.63-2.278 5.276-4.456 3.432-6.76-1.961-2.455-5.532.066-8.467.856-10.324 2.784-20.24 7.122-33.894 8.451 9.724-6.2 16.81-10.413 25.8-13.415 9.303-3.106 19.627-4.193 28.37-9.498 3.757-2.277 5.241-4.759 5.794-8.386.815-5.338-4.178-2.672-6.146-4.114-1.602-1.165-5.98-.862-4.144-4.325 1.913-3.6 7.306-3.521 8.874-1.777 3.35 3.739 6.892 2.87 10.884 2.752-.36-2.442-4.503-4.746.628-7.261 4.385-2.152 5.221-5.687-.732-7.648-3.204-1.054-1.236-3.43-1.768-5.141-1.526-4.924 3.881-12.039-5.165-14.686-.442-.131-.65-2.297-.318-3.324 1.782-5.522 4.62-11.354-5.594-11.558-1.263-11.789-14.115-7.517-19.626-12.915-5.435-5.319-9.6-11.954-10.22-19.8-.36-4.489 2.16-7.247 6.801-7.925 8.405-1.231 16.54-4.397 25.13 1.257 4.138 2.725 10.097-1.079 15.67-.941-4.834-8.333-14.08-6.049-20.82-8.709-12.639-4.976-16.768-15.791-8.737-27.514 2.9-4.232 5.553-8.61 9.613-12.105 3.329-2.863 6.029-6.391 10.172-10.881-12.237 3.496-22.823 6.524-33.41 9.545-.318-.836-.635-1.666-.946-2.501 6.022-6.175 15.538-6.181 22.672-10.414 5.262-3.12 11.719-3.054 17.133-6.641 6.436-4.26 11.457-11.329 20.58-11.5.428-.006 1.602-2.949 1.09-3.818-4.75-8.11 2.183-11.65 7.204-10.92 6.312.928 1.671-4.673 4.592-4.528-3.66-6.794 2.424-5.326 5.918-7.116 9.434-4.845 21.567-3.12 29.495-11.295 8.584 5.944 12.21-4.832 18.895-5.075 4.523-.165 9.682 2.896 12.976-2.765.221-.375 1.837-.263 2.679-.013 6.637 1.981 13.936.684 19.399-5.266 6.927-7.55 16.001-5.312 24.35-7.307 12.327-2.948 28.1 2.989 36.802-9.202 6.712-9.4 15.51-8.715 24.805-8.768 3.053-.013 5.967.975 7.542-2.942.683-1.705 2.852-3.666 4.799-.401 1.374 2.297 2.051 1.356 3.909-.046 1.94-1.462 3.929-6.57 8.232.434 3.418 5.575 8.901-.796 11.802-6.918 2.224 5.536 3.978 6.806 9.578 3.923 9.903-5.075 21.25-8.26 32.555-4.12 4.164 1.527 7.41 2.804 10.524-.455 2.631-2.758 6.906-1.678 8.156-1.086 19.73 9.38 39.115-5.134 58.479-.454 11.381 2.751 22.389 2.238 33.438-.83 2.459-.684 4.247.56 5.663 1.699 3.37 2.705 5.248 4.193 9.965.48 2.162-1.704 9.938-.533 14.82.645 8.308 2.001 16.105 2.482 24.053-1.27 2.307-1.086 6.098-1.698 8.066-.625 7.956 4.35 17.99.25 25.372 6.121 6.775-6.918 13.936 6.53 20.704-.362 5.587 5.115 15.518-3.607 19.806 5.655.546 1.178.822 1.948 2.21.335 7.576-8.814 15.953-3.633 23.763-.592 4.109 1.6 7.327-.994 11.298-.612 5.076.487 10.476-2.771 14.523 3.021.677.968 2.901.573 4.095-.704 3.84-4.114 8.025-1.685 12.279-.784 5.4 1.146 9.613 3.95 16.588 2.627 13.57-2.567 27.409 1.316 38.59 9.636 4.489 3.344 8.826 5.095 13.37 3.325 6.837-2.673 10.248-1.877 13.314 5.075 2.189 4.963 7.735 8.023 13.384 10.156 4.33 1.633 5.939 3.08 1.264 7.701-14.592 14.41-27.907 29.997-42.313 44.59-6.111 6.194-13.673 11.124-23.431 12.375 1.878 2.626 3.529 2.521 4.827 1.796 1.809-1.013 3.045-.585 3.439 1.06.173.711-.884 2.133-1.747 2.548-5.442 2.606-10.877 5.266-16.54 7.378-2.092.784-3.404 1.396-2.804 3.502.802 2.785 2.542.889 4.206.77 17.603-1.263 35.289.553 52.802-.375 15.843-.836 29.675 6.681 44.978 6.866 2.694.033 5.27.665 5.394 3.541.097 2.324-2.169 2.929-4.413 3.62-7.348 2.258-14.482 4.239-22.534 3.45-3.612-.356-7.099 6.128-11.816 1.204-.531.981-1.581 2.034-1.45 2.929.138.988 1.561 1.745 2.079 2.765 4.116 8.05.601 14.04-8.536 14.435-6.402.276-12.396-.349-18.812 3.16-8.39 4.587-18.031.381-27.029-.909-4.026-.579-29.909 3.022-32.955 5.76 5.283 2.613 9.682 6.108 16.277 5.799 5.981-.277 8.584 6.102 13.991 8.452 6.133 2.672 12.169 2.698 18.018 3.692 3.156.534 5.601 1.244 5.925 3.423.318 2.146-2.741 2.423-4.937 2.706-4.289.552-8.281 2.415-12.984 1-1.988-.599-6.712-1.955-6.878 2.396-.124 3.252 3.108 2.501 5.918 2.988 6.775 1.185 13.916-.921 22.438 3.39-16.574 4.595-31.574 2.1-46.311 1.751 2.127 5.898 2.037 5.483 7.382 4.443 3.923-.763 8.108-.316 12.175-.585 5.691-.376 9.199 3.673 10.09 9.327 7.389-5.167 13.991-6.319 21.111.125 2.383 2.159 9.054-.665 8.211 6.043-.021.151 1.443.664 1.485.605 4.641-7.708 11.982.737 17.499-2.626 1.382-.843 5.346-.566 5.684.191 3.108 6.885 13.059 3.594 16.857 11.539 2.024 4.239 11.782 7.385 19.026 5.239 3.929 3.16-4.296 3.002-.891 5.556 2.231 1.672 4.433 2.468 7.458.487 4.931-3.226 9.351-3.068 10.608 3.785 1.83 9.972 8.459 17.831 16.077 23.209 6.16 4.351 4.778 8.853 1.85 10.604-12.41 7.438-18.749 18.912-26.311 30.069-4.661 6.878-13.08 11.453-18.273 18.496-.884 1.198-2.306 2.113-2.9 3.403-3.488 7.524-9.089 12.527-17.092 16.009-7.265 3.153-13.785 7.872-21.788 10.341 6.719 7.385 12.396-5.628 18.908-.185-.373 3.713-2.058 5.984-7.141 6.352-8.328.593-13.225 7.774-20.365 10.868-1.54.665-1.506 2.982-.643 3.897.815.862 3.198 1.448 4.185.928 7.245-3.772 13.343-4.252 20.469 1.461 2.922 2.337 10.428 1.981 14.344.059 5.09-2.494 9.737-.77 12.506.902 5.933 3.581 12.065 3.423 18.177 3.469 11.774.099 21.553 5.246 31.684 9.821 2.424 1.093 5.345 2.192 7.859 1.902 8.045-.908 10.234 4.562 13.625 10.361-4.924-.026-12.016.408-12.817 1.178-6.692 6.431-15.518.612-20.193 3.068-5.539 2.909-7.714 2.093-11.443-.507-1.72-1.198-3.681-.198-3.349.987 1.933 6.839 3.287 13.481-.146 20.34-.469.934 2.88 2.139 2.335 5.088-6.105.632-12.023 2.244-18.846.856-7.079-1.435-13.329 3.35-19.565 6.062-2.99 1.297-3.432 2.205-4.343-1.389-.636-2.501-3.709-1.198-5.698-1.376-10.511-.928-21.222-.895-31.498-2.896-7.693-1.494-15.061-4.344-22.568-1.909 2.327 1.916-.566 10.183 8.605 8.557 5.38 11.046 18.791 5.339 26.601 11.842-6.298 6.115-12.541-4.726-18.922-.336 14.054 6.418 26.878 15.034 42.361 17.871 2.997.553 4.288 2.719 4.192 4.931-.145 3.297-3.336 2.712-5.698 2.738-5.897.053-11.795.02-17.686.046-2.769.013-5.207 1.033-4.937 3.903.2 2.166 2.431 2.976 4.861 3.193 16.637 1.514 31.146 8.86 45.648 15.877 6.581 3.179 13.625 1.079 20.262 3.31 3.28 1.106 6.001 1.087 5.062 5.154-.891 3.845-2.935 3.72-6.747 2.785-4.675-1.145-9.841-.5-14.799-.527-5.152-.033-10.988-.461-4.144 6.583 2.859 2.942-.587 6.562-1.519 8.175-2.514 4.364-1.996 8.906-3.681 14.073h26.505c1.388 4.358-4.489 1.922-3.571 4.726.802 2.442 3.557 1.685 5.636 1.982 6.249.895 12.851-.211 17.796 5.924 1.657 2.06 7.044 4.555 11.726 1.619 1.968-1.238 4.689-.77 6.989.744 1.478.974 3.55 1.217 3.08 3.627-.442 2.244-1.602 3.969-4.192 3.785-7.852-.56-15.421 3.449-23.252 1.408-2.562-.665-3.336.849-4.496 1.981-2.196 2.14.456 3.015 1.54 4.022 1.506 1.402 3.212 3.206 5.09 3.535 10.98 1.922 4.164 9.064 4.654 13.981.132 1.317-1.312 1.981-2.624 1.817-17.851-2.278-35.862 2.837-53.762-1.382-5.352-1.264-11.415-.468-17.044.217-4.481.546-7.644 2.949-6.429 8.287 1.34 5.871-1.685 7.293-7.624 7.431-5.559.132-11.643-2.744-16.878 4.312-1.885 2.547-14.772 1.27-19.012-2.245-5.462-4.522-7.403.612-10.911.52 18.874 5.358 38.127 8.597 57.457 11.796 6.415 1.06 15.048.823 19.198 8.057.87 1.52 1.588 2.613 3.356 1.56 7.286-4.351 9.883.73 14.399 5.022 4.641 4.41 10.269 8.821 17.582 10.012 3.136.507 6.941 1.83 5.663 6.306-1.063 3.732-3.909 3.159-7.127 2.607-4.599-.784-9.274-.843-12.582 3.422-2.024 2.607-5.131 1.554-7.797 1.6-7.334.125-14.668.046-22.361.046 4.799 10.703-.421 16.476-15.435 18.273.608 1.849 7.224 2.284 2.459 4.877-5.849 3.186-12.113 8.893-19.889 3.384-2.486-1.764-4.655-3.18-6.74.52-.415.73-2.569 1.481-3.039 1.132-5.904-4.351-11.401-4.7-18.066-.764-1.747 1.034-6.477-1.764-8.204 2.291-1.899 4.45 4.751 3.936 5.069 7.629-4.509 2.337-9.357 4.535-13.832 7.287-2.998 1.843-5.629 2.165-8.502.322-1.45-.934-2.72-3.074-4.578-1.54-.843.698-.711 2.791-.559 4.199.276 2.561 2.596 2.034 4.295 2.041 9.62.066 19.309.737 28.846-.132 13.128-1.198 26.442-1.257 39.294-4.904 2.673-.757 7.507-1.553 8.163 1.837.884 4.581-4.668 2.745-6.574 2.896-9.468.724-18.363 4.608-28.018 4.266-1.512-.053-4.129.888-5.289 3.732 4.143 2.481 8.066 4.792 13.535 4.417 6.291-.435 11.74 2.428 17.189 5.2 2.403 1.224 3.404 2.514 2.5 4.706-.857 2.074-2.79 3.429-5.214 2.732-11.284-3.265-22.306 2.534-33.68 1.257 4.247 1.119 8.501 2.238 12.734 3.357-3.549 6.201-17.845 11.809-24.15 9.446-9.157-3.43-18.383-2.666-27.644-.533-.884.204-2.037.987-2.562.691-8.259-4.654-8.867 2.429-11.429 6.753 3.356.777 7.258.217 10.034 4.075-5.649.869-8.052 4.752-11.132 8.544-2.541 3.133-5.456 6.826-12.741 4.087-4.821-1.81-11.174-6.187-18.75-2.791-3.577 1.607-8.998-3.929-15.006-3.403-2.922.257-5.007.099-7.79 1.764-6.941 4.141-14.862 6.372-22.064.975-7.12-5.339-13.55.967-20.711-.461 1.112 1.764 1.63 3.541 2.831 4.239 1.471.856 4.282.303 3.067 3.192-.871 2.061-3.205 2.844-5.132 2.41-4.35-.988-8.742-4.463-11.926 1.935-.808 1.626-3.294.401-3.888-.698-3.729-6.938-7.762-2.475-11.871-.599-1.022.467-3.046.685-3.571.132-6.229-6.583-12.893-.336-19.281-.514-1.954-.052-3.204-.243-4.785-1.185-5.946-3.528-12.7-3.449-19.178-4.627-9.489-1.731-17.382 2.462-26.222 1.488-6.76-.744-12.334-1.876-16.325-7.603-3.612 1.521-1.955 8.215-6.885 6.806-2.818-.803-7.12-.987-7.617-6.102-.27-2.771-3.861-2.251-6.948-1.349-5.497 1.613-11.305 2.501-17.085.579-4.44-1.474-9.095-3.344-9.882 6.293-4.068-10.486-8.225-12.085-16.374-7.043-5.76 3.567-13.653.474-20.573.461-4.447-.014-8.418-2.805-13.673-1.857-3.647.659-6.547-3.238-5.256-8.557-3.632 9.604-11.353 6.471-17.43 5.161-4.289-.922-8.432-1.429-12.658-1.271-16.022.599-31.118-4.291-46.636-6.464-14.827-2.073-29.868-3.883-44.888-5.265-11.878-1.093-24.267-.494-35.503-3.127-15.718-3.68-31.587-5.983-47.43-8.63-12.596-2.106-25.316-3.673-38.044-4.877-14.979-1.422-28.266-6.26-39.626-15.725-1.906-1.587-3.273-3.279-3.246-5.997.076-7.214.905-14.297 2.48-21.366 1-4.476-4.8-1.942-5.877-4.536.172-.54.186-1.211.538-1.58 2.231-2.27 5.995 2.423 7.203-.763 1.416-3.752-3.75-4.614-5.704-6.313-3.1-2.685-7.376-5.424-12.762-3.903 1.243-5.503 6.484-2.37 8.17-4.581 2.01-2.646 7.486 2.804 6.719-2.469-.525-3.594-3.874-7.043-8.501-7.319-4.44-.264-8.97 0-13.121-1.646-1.437-.566-2.293-2.455-3.667-4.035 5.49-3.752 10.994.435 16.097-1.33 2.293-.796 5.725-.322 4.606-3.679-3.273-9.814 4.2-16.897 8.53-23.229 4.57-6.688-.733-5.674-3.012-6.925-4.986-2.732-11.353-.454-16.34-3.601-4.654-2.942-12.52-3.627-12.816-9.801-.36-7.471 7.23-9.998 13.293-12.796 15.89-7.326 19.387-8.279 36.348-9.892 19.412-1.843 7.937-7.444 27.494-7.049 4.157.086 5.53 3.575 6 0 .642-4.864-.821-3.258-4.501-4.495-16.989-5.674-3.386-5.925-20.499-11.303-8.632-2.712-5.153-2.378-14.842-3.095-5.87-.435-11.285-1.403-16.837-3.371-14.357-5.088-15.642-7.267-10.069-20.26 2.134-4.97 6.671-10.618 1.602-15.278-4.592-4.226-7.713-10.321-15.793-11.401-5.083-.678-12.334-1.698-13.708-9.643 5.662-.573 10.945-2.376 14.032 4.542 1.457 3.271 5.946 2.719 8.356 1.613 3.771-1.725 1.167-4.299-.6-6.339-1.395-1.613-1.672-2.804.697-4.121 3.018-1.678 2.106-5.075 1.457-7.175-2.189-7.082-1.119-13.849-.09-20.938.733-5.022 2.887-11.335-5.628-14.356-2.652-.942-3.515-6.412 1.305-9.334 1.962-1.185 6.499-.915 5.346-4.562-1.07-3.396-3.605-6.898-7.749-7.175-6.464-.421-9.309-2.198-6.305-8.728 1.119-2.442-.594-4.423-3.218-5.549C9.55 412.648-.884 401.78 1.408 382.487c.346-2.922-3.715-6.766.574-9.485 6.25-3.956 13.57-4.186 20.772-3.613 9.13.724 16.374 8.162 26.547 6.542 2.382-.355 4.965-1.994 7.996-2.31ZM646.21 712.087c9.613 1.304 18.701.619 27.872 3.324-6.74-8.603-23.555-10.854-27.872-3.324Zm-62.387 48.466c-5.801 1.277-4.42 8.472-11.761 9.828 11.795 1.178 11.795 1.178 11.761-9.828Z" fill="#F6D9A9"/></svg>