<svg width="626" height="409" fill="none" xmlns="http://www.w3.org/2000/svg"><path d="M554.179 190.939c.702 6.084.702 6.084 10.205 10.121.082 2.124-2.976.326-2.898 3.193 5.18.073 10.565.513 15.145 3.624 4.564 3.099 11.153-1.875 15.19 3.727-4.789 2.361-8.679 2.406-14.864.241 3.372 4.803 2.617 8.86-2.053 10.748 1.98 4.445 6.838 5.411 10.255 5.676 4.172.322 7.642 2.32 11.63 2.879 3.678.514 6.025 4.746 10.54 4.995 1.478.081.241 2.618-1.502 3.763-2.87 1.888-6.719 1.79-8.936 5.317.057 1.538 7.116 1.872 1.49 5.933-1.331.963 1.988 2.422 2.976 3.356 5.144 4.873 5.344 4.75.682 10.076 2.964 1.431 5.384 4.75 9.348 1.096.49 2.81 1.531 4.995 1.878 7.12.237 1.443-.62 4.24-3.535 4.285-.984.017-2.494-.22-1.947 1.578.224.73.836 1.044 1.971 1.105 5.042.277 8.871 2.683 10.998 7.438.147.33.302.742.58.909 6.352 3.837 6.217 6.605-.376 10.728-4.809 3.009-6.748 8.387-2.727 14.255 1.576 2.295-2.066 7.723-4.821 7.963-3.005.265-6.005 1.044-8.993.983-2.993-.061-3.972.999-3.556 3.796.441 2.973-.616 4.294-3.866 4.069-2.645-.183-5.062.51-5.054 4.094.004 1.383-1.975 2.867-2.367 2.145-3.009-5.533-8.487-2.569-12.635-3.792-9.405-2.777-19.852-1.974-28.58-7.03-8.246-4.774-15.639 1.264-23.469.738-2.151-.142-4.061.172-5.707 2.581-1.931 2.83-2.175-2.063-3.984-1.68-.739-4.187-2.359-4.517-5.935-2.128-4.058 2.716-7.708.901-9.663-4.122-.351-.901-.249-1.831-1.523-.881-4.548 3.384-2.008-1.957-3.572-2.703-3.176 1.883-3.805 4.994-3.772 8.583.037 4.501-3.511 6.695-7.719 5.272-3.638-1.227-7.108-4.441-11.369-1.264-.719.538-2.307.342-3.054-.6-4.556-5.724-9.732-2.919-14.863-1.206-6.736 2.25-12.651.448-17.121-5.33-1.829-2.365-4.666-2.051-6.875-2.181-2.07-.123-1.016 2.149-.869 3.776.285 3.184-3.54 5.251-6.393 3.412-3.095-1.993-5.556-2.01-7.928.853-1.38 1.667-3.09 1.639-4.968 1.007-7.969-2.695-16.023-4.954-24.441-2.296-1.236.392-2.424.249-2.967-.22-4.393-3.764-8.291-.571-12.239.771-2.29.778-4.56 1.777-6.781.469-8.438-4.967-16.459-2.716-24.963.289-8.666 3.062-17.088 8.196-27.036 5.815-1.184-.282-2.768-.278-3.768.293-9.34 5.333-19.771 5.248-29.984 6.259-.543.053-1.421-.086-1.58.188-3.082 5.3-6.152 4.738-9.851.469-.922-1.065-2.51 1.088-3.429 1.802-5.939 4.579-12.451 6.809-19.966 7.641-5.564.616-12.03-.591-16.48 4.812-.972 1.178-3.727 1.092-4.629.049-4.621-5.318-6.442-.641-7.851 2.381-1.69 3.625-4.065 2.536-6.931 2.654-11.549.465-22.424 4.306-33.552 7.046-8.206 2.023-15.333 6.769-23.669 8.037-2.764.42-5.291.799-6.72 3.719-.33.677-1.926 1.129-2.882 1.044-5.662-.514-9.875 3.139-14.781 4.721-8.157 2.634-15.537 6.826-23.416 9.884-1.727.669-5.03 2.263-7.45-.053-2.972 4.547-8.536 1.187-11.794 3.617-5.711 4.257-12.014 6.01-18.676 4.979-4.295-.665-7.585-.347-11.54 1.582-3.258 1.586-5.124-3.001-5.732-5.052-1.262-4.241-4.597-2.043-6.67-2.724-1.221-.404-4.793-.538-6.03 3.115-1.347 3.98-2.841 9.656-9.581 5.717-2.474-1.448-1.735 2.781-3.87 2.524-2.294-.278-4.674.452-7.177-.534 1.013-3.03 4.666-2.443 6.72-5.778-7.557 1.945-9.839-5.313-15.21-7.128-2.238-.754-2.993-2.377-2.56-4.644.66-3.478 2.44-.208 3.641-.599 3.862-1.256 7.32-1.558 9.83 2.801.784 1.362 11.549-3.478 11.708-5.268.127-1.46-.384-3.165-2.315-2.084-1.976 1.105-4.572 2.773-4.968-.302-.388-3.001-2.743-7.58 2.409-9.39 3.208-1.126 6.474-2.202 9.956-2.271.992-.021 2.286.395 2.625-1.179.294-1.366-.816-1.655-1.575-2.414-4.707-4.701-10.635-5.57-16.73-5.084-6.017.477-10.213-2.471-14.553-5.921 1.437-.942 2.617-1.712 3.993-2.614-1.388-.55-2.523-1.121-3.723-1.435-1.372-.359-2.605-1.007-2.352-2.463.282-1.635 1.535-1.394 2.944-1.011 1.894.514 2.624-1.517 3.674-2.153 5.707-3.449 8.054-12.086 16.77-10.993 1.812.229 4.535 1.391 5.637-1.647.727-2.002 2.919-4.171 1.323-6.063-1.331-1.578-3.944-2.039-6.311-1.538-4.169.881-8.002-3.278-12.357-.795-.543.31-1.025-1.056-.772-1.659.751-1.77 1.551-3.735 3.38-4.514 1.253-.534 2.854-.253 4.515-.628-3.315-.102-4.34-2.638-4.413-4.832-.09-2.74 1.858-4.709 4.715-5.011-.33-2.598-3.858-.734-3.874-3.405-.008-1.023.657-2.332 1.241-2.169 2.703.762 2.462-1.88 3.405-2.492 4.886-3.151 6.23-11.221 13.998-10.299.445.053 1-.375 1.428-.685 2.266-1.627 5.565-3.491 4.724-6.198-.592-1.908-3.862-3.36-6.985-3.009-3.225.363-6.524.081-10.745.081 2.042-2.3.641-5.696 4.756-5.676 1.646.008 1.686-.958.262-2.585-2.364-2.707-2.49-5.019 1.18-6.626.644-.281 1.383-.412 2.094-.493 8.038-.918 12.904-6.255 17.206-12.343 1-1.415.564-2.092-1.96-3.233-1.42-.645-1.179-2.227-.783-2.765 4.527-6.198 2.584-13.374 3.262-20.139.102-1.019 1.465-1.794.449-3.164-2.997.188-3.49 3.164-4.964 4.865-2.29.371-1.596-2.81-4-2.655 1.505 4.693-1.952 5.077-4.553 4.049-3.523-1.394-4.719 1.994-7.176 2.3-1.952.244-3.956.049-6.07.049.15-3.747 3.049-3.992 6.433-5.554-6.89-1.676-10.846-6.039-15.357-9.68-1.43-1.154-2.695-1.982-2.041-3.833.755-2.149 2.163-1.439 3.923-.97 1.47.391 3.347-.363 4.935-.922 1.282-.452 1.878-.681 1.951 1.06.143 3.279 2.87 3.74 5.03 3.283 3.09-.648 6.907-.865 8.03-4.807.297-1.04.66-3.572-2.042-2.133-3.298 1.757-5.719-.82-5.576-2.683.167-2.222-.38-5.917 3.63-6.887 2.587-.628 4.967-2.332 7.755-1.978 2.433.314 3.568-1.276 3.793-2.931.27-1.986-1.462-3.389-3.356-3.609-5.944-.689-11.165-4.42-17.574-3.596-2.568.33-5.413-1.154-7.417-3.703-1.837-2.332-1.805-3.629 1.02-4.412-.416-2.299-2.155-1.153-3.13-1.688-2.005-1.096-1.364-3.833-.499-3.902 6.58-.514 8.581-7.433 14.027-9.676 1.677-.689 3.216-1.623 5.123-1.708 1.274-.057 2.568-.037 3.82-.257 3.45-.608 6.953-3.274 6.349-5.884-.633-2.732-4.29-5.04-8.25-4.816-3.189.184-6.401-.048-9.602-.024-1.188.008-2.53-.2-2.698-1.313-.16-1.076.13-2.459 1.567-3.099 1.923-.856 3.136-3.25 5.997-2.332-2.102-1.794-4.74-2.753-3.788-6.027.918-3.16 3.817-1.843 5.76-2.54 5.413-1.941 10.973-2.683 16.835-2.54 4.05.097 8.675-10.602 6.426-14.015-1.074-1.627-2.23-2.866-.792-4.799.294-.391.522-1.227.31-1.541-3.51-5.15-.808-10.243.037-15.356.085-.522.077-1.175-.164-1.615-3.253-5.908-2.743-10.108 2.213-15.531 1.543-1.688 3.127-3.152 2.05-5.692-1.458-.282-2.258 2.54-3.61 1.162-1.339-1.366.882-2.308 1.156-3.328 1.522-5.68 5.641-7.702 10.675-9.602 7.099-2.679 13.606-6.777 20.758-9.484 1.719-.649 2.523-.89 3.384.526 1.29 2.12-.75 2.042-1.849 2.756-4.564 2.96-7.389 6.773-5.25 13.61 4.805-6.328 11.598-9.292 17.472-13.553 2.748-1.994 6.038-3.405 9.267-4.542 10.908-3.85 21.954-7.311 32.817-11.275 2.523-.921 4.748-2.389 7.614-2.14.783.069 2.122-.424 2.384-1.02 2.649-6.034 8.311-3.074 12.475-4.522 7.793-2.707 16.333-2.96 23.595-7.282 2.45-1.46 4.524 1.668 7.312.265 4.756-2.394 10.487-2.075 15.247-4.816.694-.4 1.821-.204 2.715-.065 7.695 1.199 14.753-.93 21.632-4.04 1.228-.555 2.608-.75 3.698-.066 5.829 3.67 11.189 1.289 16.145-1.598 5.928-3.458 11.692-4.763 18.656-3.389 4.707.93 10.067 1.407 14.521-2.601 2.747-2.471 7.038-1.758 10.026-1.08 4.47 1.015 8.487-.498 12.651-.25 2.572.155 4.698 2.949 7.756 1.995 1.094-.339 2.858.664 3.156-1.216.428-2.707 1.69-1.66 2.004-.305.772 3.335 1.437 2.886 3.613.795 2.531-2.435 5.58-4.771 9.707-3.185.07 2.349-4.119 2.006-2.694 4.697 1.07 2.019 3.613.673 4.895 1.534 3.817 2.556 6.735-.33 8.842-1.945 5.625-4.314 11.659-2.015 17.488-2.084 1.298-.016 2.307.277 3.233-.714 1.784-1.904 3.311-3.229 3.985.816.171 1.027 1.841 2.173 2.531 1.451 2.551-2.662 4.653-.648 7.201-.379 2.037.216 3.568.25 4.927 1.73.678.737 1.776 1.406 2.388.917 3.625-2.912 6.911-1.211 10.647-.061 5.364 1.659 3.118-3.788 4.858-6.247-3.866.701-6.426-2.051-9.639-3.014-.71-.212-2.625-1.113-1.535-2.789.825-1.264 2.164-1.39 3.352-.575 3.776 2.586 7.854 2.117 12.141 1.892 7.584-.395 15.21-.22 22.815-.02 1.805.049 3.323.049 5.079-.669 6.127-2.507 11.369.522 12.667 7.841 1.735-4.155 3.943-4.004 7.527-3.017 3.536.97 8.01 1.774 11.48-1.346 1.282-1.15 2.78-.668 4.184-.685 5.136-.069 10.271-.016 15.411-.036 2.788-.012 5.441-.176 4.743-4.204-.257-1.488.335-2.463 2.078-2.373 2.907.147 5.813.232 8.72.367 1.49.069 2.727.26 2.425 2.385-.286 1.99-.343 3.984 2.722 4.122.943.041 1.646 1.215.568 2.504-.58.693-2.633 1.256-1.057 2.642 1.036.914 2.392 1.505 4.029.938 5.482-1.9 11.157-2.593 16.957-2.748 1.997-.053 3.821-.33 5.842.359 1.629.554 4.103.917 5.295.081 4.947-3.474 9.401-1.264 14.182.175 2.045.616 2.204 1.554 1.975 3.059-.363 2.385-1.657.986-2.751.623-1.67-.55-3.184-.118-4.67.8-1.572.97-3.544 1.875-5.16 1.052-3.45-1.762-5.732-.074-8.426 2.312 2.147 1.215 3.568 3.808 6.662 1.904 1.037-.636 1.205.163 1.188.95-.085 4.114 2.188 5.056 5.899 4.97 2.494-.057 3.972 1.831 3.809 4.453-.078 1.236.988 1.199 1.073 1.182 4.324-.978 7.467 2.932 11.321 2.887 3.882-.044 7.372 1.326 11.087 1.75 1.335.15 2.915.18 3.131 2.087.241 2.129-2.947.714-2.837 2.724-2.992-.424-6.181.844-8.94-.995-1.498 2.993 2.286 8.225-4.189 9.232 5.209 5.272 12.284 5.488 18.636 7.441 2.265.697 4.556.726 6.005 3.352.824 1.496 2.163 4.167 5.205 2.54.347-.183 2.429.343 2.633 2.084.228 1.928-1.478 1.896-2.409 2.438-.873.506-2.29.098-3.139.624-2.184 1.354-4.462 2.035-3.274 6.186.968 3.392 2.008 6.026 4.454 8.465 1.126 1.125 2.996 3.156 1.682 4.676-4.936 5.7 1.661 4.241 3.396 5.632.988.79 3.984-2.688 3.596 1.268-.257 2.61 2.303 6.234-2.11 7.796-1.061.375-2.115 1.007-1.923 2.279.18 1.199 1.417.738 2.229.967 6.895 1.973 11.332 7.005 15.019 12.672 1.188 1.831 1.061 4.017-2.201 5.012-5.339 1.627-10.242 10.507-7.246 13.867 2.711 3.042 1.082 4.906.956 7.576-.155 3.226-3.519 3.499-3.952 3.246-3.294-1.916-5.989 1.081-8.993.697-.764-.098-2.294.412-2.29.441 1.192 6.976-4.454 6.699-8.463 8.758-1.674.861-2 4.979-2.253 7.364-.527 5.024-4.152 4.628-6.822 4.494-7.834-.404-15.573-1.268-23.301 1.211-2.294.734-4.131.623-3.217 3.853.38 1.35.225 3.18-2.155 3.368-2.209.171-3.63-1.056-4.393-2.667-.784-1.651-.833-3.241 2.16-2.385 1.024.293.424-1.219-.131-1.806-2.453-2.586-12.741-3.087-14.431-.135-2.339 4.082-6.421 3.034-9.642 4.347-.518.212-1.625-.106-2.119.66-.947 1.476.327 1.725 1.294 2.239 1.033.55.972 1.268.747 2.556-.567 3.291 2.246 3.36 4.275 3.018 8.123-1.374 16.235-2.308 24.501-1.509 2.629.253 5.074-.228 7.756-1.549 4.283-2.109 8.598 1.655 13.076 1.896.277.016.588 1.561.678 2.418.122 1.129-.666 1.822-1.666 1.606-5.033-1.101-9.855 3.796-14.892.555-2.715-1.75-3.209 1.345-4.764 2.063-1.139.526-.412 1.765.343 2.149 1.584.807 3.057 2.997 5.172.787.437-.465 1.106-.734 2.205-1.432ZM19.285 360.617l.33-1.61c-2.804-1.256-5.506-3.042-8.8-2.598-1.107.151-3.201.506-2.993 2.385.147 1.326 1.49 1.856 2.915 1.835 2.853-.04 5.699-.012 8.548-.012Zm-2.747-176.768c3.123 2.842 6.503 1.614 9.744 1.247.176-.02.45-1.145.363-1.19-3.078-1.717-6.233-2.28-10.107-.057Z" fill="#9B553A"/></svg>