<svg width="154" height="128" fill="none" xmlns="http://www.w3.org/2000/svg"><path d="M74.99 61.485c.09-.47 3.27-60.88 3.27-60.88l3.81 63.02 36.791-30.19-33.76 35.76 67.71-6.35-61.32 10.63 34.57 15.22-37.72-11.3 30.06 40.29-36.85-39.3.19 48.88-5.61-47.7-42.25 41.34 35.87-43.31L20 87.225l47.73-15.76-66.51-11.47 69.18 5.32-35.98-36.1 40.57 32.27Z" fill="#EDCC94"/><path d="M74.98 61.455 78.16.605c0-.06.05-.1.11-.1.05 0 .1.05.1.1l3.89 63.01-.3-.13 36.761-30.24c.1-.08.25-.07.34.03.08.09.07.23-.01.32l-33.73 35.8-.24-.49 67.72-6.3c.13-.01.24.08.25.21.01.12-.07.23-.19.25l-61.34 10.58.04-.34 34.56 15.25c.07.03.1.11.07.19-.03.07-.1.1-.17.08l-37.71-11.34.11-.16 30.08 40.27c.05.06.03.15-.03.19-.06.04-.14.03-.18-.02l-36.88-39.25.32-.13.23 48.88c0 .13-.1.23-.23.23a.23.23 0 0 1-.23-.21l-5.64-47.68.47.16-42.23 41.36c-.12.12-.31.11-.42 0a.305.305 0 0 1-.02-.4l35.86-43.32.3.5-49.75 9.64a.318.318 0 0 1-.37-.25c-.03-.16.06-.31.21-.36l47.72-15.77.05.63-66.51-11.54a.278.278 0 0 1-.22-.31c.02-.14.15-.23.28-.22l69.17 5.42-.14.29-35.92-36.15a.109.109 0 0 1 0-.15c.04-.04.1-.04.14-.01l40.5 32.33Zm.02.07-40.65-32.23.14-.15 36.03 36.05c.07.07.07.18 0 .24-.04.04-.09.05-.14.05L1.2 60.255l.06-.53 66.52 11.42c.18.03.3.2.27.37-.02.12-.11.22-.22.25L20.1 87.525l-.16-.61 49.76-9.62c.17-.03.33.08.36.24a.34.34 0 0 1-.06.26l-35.89 43.31-.44-.41 42.27-41.32c.11-.11.28-.1.39 0 .04.05.07.1.08.16l5.56 47.7-.46.03-.14-48.88c0-.1.08-.19.19-.19.05 0 .1.02.14.06l36.811 39.33-.21.18-30.04-40.31a.121.121 0 0 1 .02-.15c.03-.02.06-.03.09-.02l37.73 11.27-.1.27-34.58-15.19a.172.172 0 0 1-.09-.23c.03-.06.08-.09.13-.1l61.32-10.69.06.46-67.71 6.41a.291.291 0 0 1-.24-.49l33.81-35.72.33.35-36.84 30.15a.19.19 0 0 1-.26-.03.143.143 0 0 1-.04-.1L78.16.615h.21L75 61.525Z" fill="#EDCC94"/><path d="m66.5 57.805 10.36 8.91 1.22-23.33 1.74 25.62 11.67-10.84-11.03 12.77 25.261-2.39-21.86 3.86 17.91 7.07-19.36-5.76s13.67 17.61 13.58 17.05c-.09-.54-16.44-17.81-16.44-17.81l.28 22.59-2.11-20.57s-12.58 12.58-12.4 12.31c.18-.28 10.2-13.41 10.2-13.41l-29.96 6.43 29.39-9.55-28.66-4.96 29.35 2.27-9.14-10.26Z" fill="#EDCC94"/></svg>