<svg width="1231" height="42" fill="none" xmlns="http://www.w3.org/2000/svg"><g clip-path="url(#a)" fill="#30453A"><path d="M-810.194 6.39a26.104 26.104 0 0 1 2.915-.375c3.989-.284 6.047.464 9.044.823 6.472.77 6.934-1.533 11.728-.277 3.52.92 3.743 2.289 6.651 2.947 4.429 1.002 6.621-1.967 11.803-3.074 3.862-.823 4.705.232 12.109.965 10.952 1.077 13.003-.86 24.679.127 4.869.411 6.315.897 10.983 1.555 12.787 1.795 22.837 1.07 31.009.516 74.955-5.062 92.544-2.198 96.645-1.428 1.663.314 4.981 1.01 9.693 1.294 13.458.807 14.517-3.208 23.516-1.556 5.614 1.032 10.558 3.575 14.86.778.79-.516 1.282-1.025 1.424-1.167 8.642-8.592 87.25 4.225 108.395 1.167 2.789-.404 8.709-1.683 16.15 0 4.392.995 5.592 2.176 11.11 3.11 4.712.801 6.084.322 11.885.906 7.523.762 7.672 1.824 11.884 2.071 8.426.501 9.611-3.612 21.966-6.087 1.513-.3 8.022-1.548 16.41-1.167 7.538.344 10.245 1.72 16.799 2.595 10.043 1.339 17.425-.052 22.741-.777 16.612-2.266 31.002-.457 66.023-.39 17.126.03 41.962-.343 73.128-2.333 0 0 3.102 2.334 5.167 2.46 1.298.083 1.581-.5 2.67-1.016.857-.404 1.573-.599 3.146-.673 2.483-.112 3.72-.172 7.232 1.555 5.54 2.722 22.331 1.01 31.524.389 17.85-1.211 16.038 1.092 40.18.127 11.647-.463 10.096-.92 24.031-1.682C-24.167 6.21-9.904 5.424-1.016 7.51c3.832.897 13.085 3.402 25.194 1.944 3.057-.366 5.234-.86 6.069-1.04 15.963-3.372 42.23 2.543 49.612 4.016 35.379 7.06 63.615-2.864 94.572-3.238 1.514-.015 6.539-.06 13.436-.388 5.48-.262 7.933-.509 10.722-.651 8.85-.434 13.473.598 20.929 1.166 12.668.965 13.637-.92 33.85-1.166 9.245-.112 15.3.21 20.415.389 51.759 1.84 109.73-6.768 130.234-.516 2.49.763 9.186 3.185 17.574 1.944 3.78-.56 5.07-1.443 9.692-2.206 5.92-.972 10.349-.59 15.762-.127 26.044 2.213 31.092 2.55 38.503 1.555 4.899-.658 4.205-1.002 9.044-1.682 13.645-1.922 25.03 0 32.561 1.944 0 0 1.812 1.294 2.841 1.294 1.028 0 7.754-3.111 10.855-2.85 3.102.262 8.657.517 11.11.517 2.453 0 7.493-.128 8.269-.128.775 0 4.652-1.682 8.783-1.293 4.138.389 15.889.516 15.889.516a339.207 339.207 0 0 0 43.669 1.817c15.591-.36 26.566-1.69 32.688-2.333 18.312-1.93 43.125-1.115 92.767.516 23.211.762 65.255 2.438 81.912.389 2.073-.255 6.71-.928 13.175-.905 10.654.037 10.863 1.914 18.602 1.166 3.87-.374 8.925-1.338 14.085-.777.484.052 1.685.194 3.363.261 3.877.142 6.732-.284 7.493-.389 5.115-.703 35.312-3.23 65.374-.388 7.121.673 5.309.8 11.11 1.293 17.998 1.526 24.329-.673 48.572-1.293 12.83-.33 23.74-.045 25.32 0 9.64.269 13.72.688 22.36.777 9.74.105 17.68-.291 22.86-.65 0 0 .65 1.293 4.14 1.293 3.49 0 5.82-1.04 7.76-.777 1.94.261 7.62.516 8.39.516 0 0 4.93.538 14.34.777 9.39.24 9.78-1.376 18.6-1.555 14.41-.3 18.84 3.874 33.2 1.555 1.71-.276 2.09-.403 4.01-.777 27.54-5.332 51.35 1.787 72.09-.128 1.67-.157 5.68-.583 11.24-.65 7.22-.082 10.84-.127 13.18.389 2.36.516 7.11 1.84 10.21.516.33-.142.87-.412 1.67-.516 1.97-.27 2.93.74 4.91.905 1.38.112 2.3-.255 3.23-.516 3.68-1.04 8.05-.531 11.37-.39 8.75.382 10.15-1.787 18.6-1.644 3.45.06 8.48.508 14.6 2.422V141.5H-810.194V6.389Z"/><path d="M87.1 7.22c1.79-2.02 5.808-2.251 7.3 0 1.132 1.712.528 4.457-1.201 5.735-2.349 1.735-6.196.344-6.994-2.034-.455-1.33.104-2.804.895-3.701Zm10.908 1.885c.947-1.271 6.807.576 6.919 2.415.067 1.077-1.819 2.416-3.609 2.266-2.684-.232-4.004-3.739-3.31-4.681Zm372.823-2.259c.261-1.069 8.216-.583 8.35.531.075.584-2.013 1.511-3.914 1.511-2.356-.008-4.586-1.443-4.436-2.042ZM973.82 6.69c-.096.56 3.005 2.168 6.018 1.36.581-.157 2.087-.65 2.028-1.054-.112-.905-7.896-1.16-8.046-.307Zm188.11 1.061c-.1.875 6.38 3.47 9.48 1.054.15-.112 1.07-.83.9-1.36-.28-.905-3.57-.636-5.86-.457-2.99.247-4.48.367-4.52.763Z"/></g><defs><clipPath id="a"><path fill="#fff" d="M0 0h1231v42H0z"/></clipPath></defs></svg>