<svg width="999" height="96" fill="none" xmlns="http://www.w3.org/2000/svg"><g clip-path="url(#a)" fill="#212C26"><path d="M1673.19 96V13.48c-2.39 2.59-6.18 5.97-11.56 7.943-15.86 5.85-27.21-7.188-48.02-11.666-15.19-3.277-12.75 2.882-59.58 7.995-26.98 2.95-40.45 4.41-49.24 2.453-9.35-2.093-21.14-6.468-37.08-3.671-6.46 1.132-11.05 3.002-12.76 3.671-6.86 2.642-33.03 11.169-122.79 3.054-38.8-3.517-47.17-6.296-68.09-3.671-8.67 1.098-17.13 2.813-34.04 4.271-11.41.978-25.62 2.162-41.34 1.219-20.16-1.201-34.39-5.387-41.95-7.343-61.27-15.767-125.04 2.402-177.508 1.218-4.368-.103-15.031-.48-29.175 1.218-8.343.995-8.974 1.647-19.45 3.054-18.511 2.487-20.388.96-30.403 3.053-9.401 1.956-8.906 3.535-27.35 10.397-17.112 6.365-25.66 9.539-32.826 9.78-12.028.41-21.139-3.655-37.688-10.998-15.526-6.897-21.549-12.37-34.652-12.833-5.954-.206-5.545.892-15.202 1.218-16.413.566-21.804-2.47-31.614-2.453-15.219.034-14.776 7.377-35.863 12.833-10.288 2.66-29.704 7.686-48.625 0-12.984-5.267-14.127-11.804-24.927-12.232-11.465-.464-15.97 6.673-27.35 4.271-6.978-1.475-7.694-4.649-15.798-7.943-5.955-2.419-13.359-3.86-27.964-2.453-38.507 3.757-50.28 19.987-68.092 12.232-5.852-2.556-7.968-5.782-16.413-7.943-8.65-2.23-17.471-1.664-24.313-1.218-5.869.377-6.432.823-11.55 1.218-12.557.995-21.77-.652-26.138-1.218-16.089-2.076-27.947 2.745-42.551 5.507-45.435 8.56-57.702-14.171-102.744-7.343-10.766 1.63-25.592 5.301-42.551 3.671-2.969-.291-9.384-1.046-18.239-.617-9.23.463-13.103 1.835-18.853 2.453-13.051 1.373-14.382-3.5-31.614-5.507-10.22-1.184-26.667-1.441-42.551 1.836-5.016 1.03-8.07 2.024-12.762 1.218-9.384-1.613-13.189-8.355-20.064-6.725-2.952.703-2.713 2.058-6.688 3.671-6.723 2.71-13.138 1.15-15.8.618-9.605-1.956-12.88.566-34.651.617-24.722.052-48.557-3.14-65.652-4.272-72.699-4.838-131.117 20.348-150.755 3.672-1.859-1.579-9.861-9.042-18.238-7.292-4.044.841-29.488 4.25-31.126 6.154l-5.966 4.904v74.483H1673.19V96Z"/><path d="M31.794 15.298c.427 1.595 3.583 2.093 5.58 1.955 2.848-.188 6.295-1.904 6.227-3.654-.069-1.784-3.754-3.62-6.876-3.002-2.747.549-5.375 3.036-4.93 4.7ZM70.575 15.726c1.365 1.356 4.026 2.574 5.869 1.304 1.143-.789 1.86-2.47 1.433-3.74-.972-2.916-7.746-3.465-8.889-1.578-.648 1.08.614 3.054 1.587 4.014ZM80.522 17.236c-.24-.669.46-1.578 1.143-2.024 1.586-.995 4.163-.069 4.3.858.102.72-1.212 1.595-2.287 1.87-1.177.309-2.866.137-3.156-.704ZM144.655 17.236c-.785-3.19 9.418-10.259 13.137-7.788 2.082 1.39 2.287 5.85.427 8.44-3.378 4.735-12.881 2.076-13.564-.652ZM162.092 18.746c-.904-1.252.239-3.946 1.945-5.198 3.498-2.556 9.35.995 9.264 2.813-.119 2.265-9.469 4.787-11.209 2.385ZM287.698 15.229c-.563 1.818 5.733 7.36 12.523 6.193 2.917-.498 6.773-2.385 6.569-3.929-.41-3.174-18.222-4.992-19.092-2.264ZM313.444 21.714c.733.48 2.934 1.767 5.852 1.476 4.538-.464 7.831-4.461 7.302-5.388-.409-.737-3.532-.154-13.154 3.912ZM329.839 22.211c.393 1.373 6.757 2.128 8.275-.823.546-1.064.563-2.78-.324-3.432-1.996-1.44-8.394 2.728-7.951 4.255ZM392.131 16.653c-.017 1.681 4.896 4.169 9.418 2.762 3.89-1.218 6.773-5.112 5.988-6.536-1.399-2.54-15.389.96-15.406 3.774ZM462.782 22.349c-.717 1.733 4.436 7.566 10.458 6.81 2.764-.342 6.211-2.144 6.04-3.705-.324-3.157-15.441-5.644-16.498-3.105ZM486.053 24.27c1.587-1.407 2.577-4.272 1.178-5.919-1.416-1.664-4.692-1.424-6.194.446-1.689 2.11-.682 5.73 1.331 6.52 1.706.669 3.549-.927 3.685-1.047ZM577.059 22.64c3.6 1.784 9.725 2.024 12.165-2.11 2.132-3.654.375-8.904-2.798-10.808-5.221-3.14-14.161 2.847-14.025 7.531.068 2.934 3.771 4.941 4.658 5.387ZM623.329 27.702c.478 4.58 8.104 7.634 13.922 7.72 10.118.137 20.355-8.647 19.194-13.673-1.194-5.216-15.048-8.167-24.636-3.535-.58.292-8.991 4.444-8.48 9.488ZM662.588 29.691c2.047 1.733 5.869.275 7.95-1.32 3.754-2.866 5.34-8.836 3.515-10.534-2.338-2.162-11.585 1.51-12.677 7.085-.29 1.458-.153 3.637 1.212 4.77ZM810.902 36.056c2.218.498 7.047 1.562 10.459-1.218 4.555-3.706 4.47-12.507.802-16.984-6.518-7.978-25.2-3.346-26.94 3.242-1.382 5.147 7.166 13.073 15.679 14.96ZM835.846 19.775c-1.433 1.767-4.572 5.61-3.651 9.933 1.228 5.765 9.077 9.66 14.707 8.407 10.015-2.23 14.366-21.085 9.315-25.632-3.958-3.568-14.86.515-20.371 7.292Z"/></g><defs><clipPath id="a"><path fill="#fff" transform="rotate(90 499.5 499.5)" d="M0 0h96v999H0z"/></clipPath></defs></svg>