<svg width="1231" height="42" fill="none" xmlns="http://www.w3.org/2000/svg"><g clip-path="url(#a)" fill="#212C26"><path d="M2041.19 35.61c-.67.128-1.68.285-2.91.375-3.99.284-6.05-.464-9.05-.823-6.47-.77-6.93 1.533-11.72.277-3.52-.92-3.75-2.288-6.65-2.947-4.43-1.002-6.63 1.967-11.81 3.074-3.86.822-4.7-.232-12.11-.965-10.95-1.077-13 .86-24.67-.127-4.87-.411-6.32-.897-10.99-1.555-12.78-1.795-22.84-1.07-31.01-.516-74.95 5.062-92.54 2.198-96.64 1.428-1.66-.314-4.98-1.01-9.69-1.294-13.46-.807-14.52 3.208-23.52 1.556-5.62-1.032-10.56-3.575-14.86-.778-.79.516-1.28 1.025-1.42 1.166-8.65 8.593-87.26-4.225-108.4-1.166-2.79.404-8.71 1.683-16.15 0-4.39-.995-5.59-2.176-11.11-3.111-4.71-.8-6.08-.322-11.88-.905-7.53-.763-7.68-1.825-11.89-2.071-8.42-.501-9.61 3.612-21.96 6.087-1.52.3-8.03 1.548-16.42 1.166-7.53-.343-10.24-1.72-16.79-2.594-10.05-1.339-17.43.052-22.74.777-16.62 2.266-31.01.456-66.03.39-17.12-.03-41.96.343-73.13 2.332 0 0-3.1-2.333-5.16-2.46-1.3-.082-1.58.501-2.67 1.017-.86.404-1.58.598-3.15.673-2.48.112-3.72.172-7.23-1.555-5.54-2.722-22.33-1.01-31.53-.39-17.84 1.212-16.03-1.091-40.18-.126-11.64.463-10.09.92-24.03 1.682-28.52 1.563-42.79 2.348-51.67.262-3.84-.897-13.09-3.403-25.2-1.944-3.05.366-5.23.86-6.07 1.04-15.96 3.372-42.23-2.544-49.61-4.017-35.38-7.06-63.61 2.864-94.57 3.238-1.51.015-6.54.06-13.44.39-5.48.261-7.93.508-10.72.65-8.85.434-13.47-.598-20.93-1.167-12.666-.964-13.635.92-33.848 1.167-9.245.112-15.3-.21-20.415-.389-51.759-1.84-109.73 6.768-130.234.516-2.49-.763-9.186-3.186-17.574-1.944-3.78.56-5.07 1.443-9.692 2.206-5.92.972-10.349.59-15.762.127-26.044-2.214-31.092-2.55-38.503-1.556-4.899.658-4.205 1.002-9.044 1.683-13.645 1.922-25.03 0-32.561-1.944 0 0-1.812-1.294-2.84-1.294-1.029 0-7.755 3.11-10.856 2.85-3.102-.263-8.657-.517-11.11-.517-2.453 0-7.493.127-8.269.127-.775 0-4.652 1.683-8.783 1.294-4.138-.389-15.888-.516-15.888-.516a339.216 339.216 0 0 0-43.67-1.817c-15.591.359-26.566 1.69-32.688 2.333-18.311 1.93-43.125 1.114-92.767-.516-23.211-.763-65.255-2.438-81.912-.389-2.073.254-6.71.927-13.175.905-10.654-.038-10.863-1.915-18.602-1.167-3.87.374-8.925 1.339-14.085.778-.484-.052-1.685-.194-3.362-.262-3.878-.142-6.733.285-7.494.39-5.115.702-35.312 3.23-65.374.388-7.121-.673-5.309-.8-11.11-1.294-17.998-1.525-24.328.673-48.575 1.294-12.825.329-23.733.045-25.321 0-9.641-.27-13.719-.688-22.353-.778a287.767 287.767 0 0 0-22.868.65s-.648-1.293-4.138-1.293c-3.489 0-5.815 1.04-7.754.778-1.939-.262-7.62-.516-8.395-.516 0 0-4.929-.538-14.338-.778-9.395-.24-9.775 1.376-18.603 1.556-14.405.299-18.842-3.874-33.202-1.556-1.707.277-2.087.404-4.004.778C24.77 39.305.961 32.186-19.78 34.1c-1.67.157-5.674.583-11.244.65-7.217.083-10.833.128-13.174-.388-2.356-.516-7.106-1.84-10.208-.516-.335.142-.872.411-1.677.516-1.969.269-2.93-.74-4.906-.905-1.38-.112-2.304.254-3.229.516-3.683 1.04-8.052.53-11.37.389-8.753-.382-10.155 1.787-18.603 1.645-3.452-.06-8.477-.509-14.599-2.423V-99.5h2149.98V35.61Z"/><path d="M1143.9 34.78c-1.79 2.02-5.81 2.251-7.3 0-1.13-1.712-.53-4.457 1.2-5.735 2.35-1.735 6.2-.344 7 2.034.45 1.33-.11 2.804-.9 3.701Zm-10.91-1.885c-.94 1.271-6.81-.576-6.92-2.415-.06-1.077 1.82-2.416 3.61-2.266 2.69.232 4.01 3.739 3.31 4.681Zm-372.821 2.259c-.261 1.069-8.216.583-8.35-.531-.075-.584 2.013-1.511 3.914-1.511 2.356.008 4.586 1.443 4.436 2.042Zm-502.989.156c.096-.56-3.005-2.168-6.018-1.36-.581.157-2.087.65-2.028 1.054.112.905 7.896 1.16 8.046.307ZM69.072 34.249c.097-.875-6.382-3.47-9.484-1.055-.15.113-1.066.83-.902 1.361.283.905 3.578.636 5.867.457 2.99-.247 4.482-.367 4.519-.763Z"/></g><defs><clipPath id="a"><path fill="#fff" transform="rotate(-180 615.5 21)" d="M0 0h1231v42H0z"/></clipPath></defs></svg>