<svg width="2950" height="605" fill="none" xmlns="http://www.w3.org/2000/svg"><path opacity=".7" d="M2950 605H0V42.114c44.832-14.968 101.361-29.346 167.539-36.11C224.698.159 313.002-8.844 417.202 20.782c28.055 7.973 23.626 9.172 45.992 14.777 89.713 22.482 154.031 1.55 218.459-8.203 90.953-13.769 78.185 10.481 275.948 14.778 46.869 1.02 103.519-.96 216.819-4.926 271.71-9.502 276.54-18.515 353.15-8.203 69.03 9.292 100.66 21.402 174.1 19.694 69.58-1.61 102.98-13.909 164.25-22.981 79.14-11.71 126.47-6.445 254.59 1.638 232.15 14.648 348.22 21.982 405.71 18.055 111.75-7.623 200.68-26.518 356.43-11.49 28.54 2.748 51.92 5.935 67.35 8.203" fill="#6387A9"/></svg>