<svg width="610" height="110" fill="none" xmlns="http://www.w3.org/2000/svg"><path d="M175.008 27.074c-4.719 1.061-15.71-14.274-11.123-21.069 2.296-3.393 8.431-4.588 12.021-2.419 7.277 4.395 3.753 22.443-.898 23.488Zm29.834 14.081c-4.133.031-9.225-7.212-6.813-11.784 2.348-4.452 10.857-4.606 13.313-1.282 2.813 3.836-1.862 13.03-6.5 13.066ZM.004 95.294c-.54 7.108 50.205 21.883 58.658 9.632 1.99-2.881 1.456-6.973 0-9.632-8.194-14.977-58.131-6.933-58.658 0Zm177.383.457c.266 1.165 23.359-6.186 72.825-9.114 8.154-.484 32.142-1.736 65.445-.518 56.136 2.06 92.816 9.478 93.581 5.964.588-2.713-20.796-9.296-21.883-9.632-86.535-26.4-210.583 10.608-209.968 13.3Zm308.614-12.609c-.264 2.975 36.237 8.946 66.039 11.463 26.033 2.201 57.47 2.645 57.727 0 .237-2.464-26.657-7.21-45.259-9.632-38.108-4.955-78.235-4.928-78.507-1.831Z" fill="#8EAECB"/></svg>