<svg width="1920" height="374" fill="none" xmlns="http://www.w3.org/2000/svg"><g clip-path="url(#a)"><path fill-rule="evenodd" clip-rule="evenodd" d="M-960 284.929c20.855-55.282 61.38-122.897 147.097-135.558 114.928-16.992 189.307 82.813 353.047 81.971 115.518-.597 179.105-51.871 255.036-89.342 46.601-22.997 147.982-69.252 201.006-39.753 60.042 33.404 93.67 74.37 222.668 73.675 189.284-1.012 249.692-158.07 418.736-155.85 139.88 1.843 184.516 110.758 335.324 125.359C1199.35 167.363 1306.65 16.218 1571.5 20.073c151.68 2.21 222.98 23.898 343.77 82.067 120.79 58.169 120.13 24.124 207.99 37.777 218.58 33.96 330.35-15.211 483.98 36.253C2741.84 221.267 2796.82 306.178 2822 374H-960v-89.071Z" fill="#30453A"/></g><defs><clipPath id="a"><path fill="#fff" transform="rotate(180 960 187)" d="M0 0h1920v374H0z"/></clipPath></defs></svg>