<svg width="1920" height="374" fill="none" xmlns="http://www.w3.org/2000/svg"><g clip-path="url(#a)"><path fill-rule="evenodd" clip-rule="evenodd" d="M2880 89.071c-20.85 55.282-61.38 122.897-147.1 135.558-114.92 16.992-189.3-82.813-353.04-81.971-115.52.597-179.11 51.871-255.04 89.342-46.6 22.997-147.98 69.252-201.01 39.753-60.04-33.404-93.67-74.37-222.66-73.675-189.29 1.012-249.7 158.069-418.74 155.849-139.88-1.842-184.52-110.757-335.324-125.358-226.44-21.932-333.738 129.213-598.586 125.358-151.679-2.21-222.98-23.898-343.769-82.067-120.788-58.169-120.126-24.124-207.99-37.777-218.586-33.96-330.349 15.211-483.98-36.253C-821.837 152.733-876.82 67.822-902 0h3782v89.071Z" fill="#30453A"/></g><defs><clipPath id="a"><path fill="#fff" d="M0 0h1920v374H0z"/></clipPath></defs></svg>