<svg width="1920" height="570" fill="none" xmlns="http://www.w3.org/2000/svg"><g clip-path="url(#a)"><path d="M716.171 88.353c63.74-4.901 148.192-16.364 244.562-44.376 74.627-21.696 77.737-30.452 125.317-37.322 112.98-16.303 130.9 27.91 259.73 16.139 45.19-4.122 78.02-12.776 124.3 1.005 20.67 6.151 36.67 14.6 69.74 20.178 28.91 4.88 42.24 2.748 70.74 4.04 50.69 2.296 61.23 11.463 110.16 18.148 43.64 5.967 75.27 4.163 130.36 1.005 79.54-4.553 111.47-15.38 148.13 6.05 17.87 10.457 29.3 24.156 35.79 33.281V402H700l16.171-313.647Z" fill="#212C26"/><path d="M-174.829 88.353c63.74-4.901 148.192-16.364 244.562-44.376 74.63-21.696 77.733-30.452 125.322-37.322 112.972-16.303 130.89 27.91 259.726 16.139 45.185-4.122 78.02-12.776 124.294 1.005 20.672 6.151 36.678 14.6 69.74 20.178 28.911 4.88 42.247 2.748 70.747 4.04 50.691 2.296 61.233 11.463 110.157 18.148 43.644 5.967 75.267 4.163 130.356 1.005 79.545-4.553 111.475-15.38 148.135 6.05 17.87 10.457 29.3 24.156 35.79 33.281V402H-191l16.171-313.647Z" fill="#212C26"/><path d="M-134 129.818c218.057 9.237 372.279 5.214 471.031 0 207-10.921 310.479-16.381 334.566-20.199 16.852-2.668 51.072-8.437 97.026-6.055 91.066 4.721 155.825 37.708 178.905 48.464 128.412 59.775 194.812 2.505 497.292 37.36 154.37 17.776 165.24 35.943 332.56 50.476 103.74 9.011 189.53 9.853 246.62 9.093V464H-134V129.818Z" fill="#26372E"/><path d="M1590.52 249.8c3.23 12.03 6.51 24.06 9.86 36.09l.34-.11c-2.05-12.32-4.59-24.55-7.42-36.71l-2.14-9.12-2.29-9.08c-1.49-6.06-3.16-12.08-4.91-18.07l-2.69-8.97-2.81-8.93-5.6-17.86c-1.85-5.95-3.6-11.94-5.35-17.93-1.17-3.831-2.28-7.679-3.39-11.527v-.006l-.01-.022c-.62-2.139-1.23-4.278-1.86-6.415-.84-3.01-1.75-6-2.67-8.98-.9-2.98-1.83-5.97-2.78-8.94l-2.82-8.93c-.61-1.893-1.27-3.771-1.93-5.65l-1.11-3.21c-.75-2.131-1.48-4.267-2.22-6.404-1.3-3.77-2.6-7.54-3.97-11.286-1.67-4.488-3.4-8.958-5.13-13.429l-.01-.002c-.52-1.356-1.05-2.712-1.57-4.069l-.57-1.453c-.38-.968-.76-1.937-1.17-2.897l-1.12-2.617c.33.33.67.662 1 .997.77.72 1.47 1.51 2.17 2.3.25.275.5.546.76.817.46.498.93.995 1.37 1.513.33.405.66.806.99 1.206 1.01 1.223 2.02 2.44 2.92 3.744 1.03 1.32 1.95 2.71 2.87 4.1l.72 1.07.57.96c.89 1.477 1.78 2.955 2.54 4.5 3.97 7.38 6.63 15.43 8.21 23.72.76 4.15 1.3 8.36 1.48 12.61.22 4.24.17 8.52-.27 12.81 1.24-4.14 1.8-8.48 2.08-12.79.24-4.34.1-8.72-.44-13.06-.5-4.35-1.47-8.64-2.73-12.85-1.29-4.2-3.04-8.26-5.05-12.17-.81-1.609-1.76-3.143-2.71-4.681-.21-.336-.41-.672-.62-1.009l-.78-1.142c-.98-1.437-1.96-2.872-3.07-4.208-1.02-1.341-2.14-2.594-3.27-3.845l-1.02-1.145a49.333 49.333 0 0 0-1.65-1.672l-.66-.658c-.78-.77-1.57-1.53-2.41-2.23a81.613 81.613 0 0 0-5.38-4.386l-2.08-4.794-3.77-8.58c-.89-1.88-1.81-3.751-2.73-5.622l-1.38-2.808-4.17-8.4-2.1-4.19c-.46-.927-.97-1.835-1.49-2.744-.25-.455-.51-.91-.76-1.366-1.31-2.385-2.67-4.747-4.02-7.107l-.6-1.053c-.22-.378-.43-.757-.65-1.135v-.006A501.62 501.62 0 0 0 1505.02 3l-.32.18c8.1 16.697 15.5 33.653 22.51 50.767a81.48 81.48 0 0 0-10.89-5.737c4.27 2.86 8.39 5.882 12.28 9.127 1.95 4.783 3.86 9.578 5.76 14.383.77 1.918 1.53 3.838 2.28 5.76a77.968 77.968 0 0 0-4.1-5.14c-2.88-3.37-6.11-6.41-9.49-9.27-3.43-2.81-7.08-5.32-10.85-7.64-3.79-2.29-7.77-4.22-11.8-6.02-.65-.254-1.3-.517-1.95-.78-1.4-.565-2.79-1.129-4.22-1.6l-3.12-1.09-3.17-.93c-8.44-2.44-17.13-3.91-25.84-4.33 8.5 1.95 16.86 4.2 24.95 7.1 8.08 2.91 15.92 6.43 23.22 10.85 7.34 4.36 14.13 9.6 20.13 15.68 2.99 3.04 5.8 6.29 8.33 9.76.34.452.67.909 1 1.37 6.55 17.074 12.71 34.301 18.87 51.547v.003c.58 1.6 1.15 3.2 1.72 4.8.7 2.084 1.42 4.166 2.13 6.248v.006c1.31 3.81 2.62 7.623 3.86 11.456 1.14 3.554 2.22 7.123 3.29 10.7-23.05-36.392-67.22-67.005-117.61-66.17-13.82.22-28.06 1.1-40.73 7.1-8.6 3.57-14.47 13.47-9.36 20.8-1.91-7.54 3.73-14.09 11.94-16.26 7.63-2.55 16.36-2.84 24.85-2.96 17.41-.02 34.06 1.9 49.75 7.14 32.02 10.737 57.95 30.255 81.51 51.529.59 2.008 1.18 4.019 1.76 6.031 1.48 5.024 2.76 10.111 4.04 15.191v.001c.24.967.49 1.933.73 2.898l2.29 9.06 2.21 9.09c.17.679.35 1.358.52 2.038.59 2.343 1.18 4.686 1.82 7.012l2.37 9.04 4.83 18.06Z" fill="#B56647"/><path d="M-121 161.146c129.704-42.847 231.6-44.801 301.21-38.445 82.701 7.57 99.554 25.013 221.366 34.393 79.166 6.088 115.07 2.015 195.079 17.196 59.827 11.334 106.726 26.308 130.382 34.392A943.582 943.582 0 0 1 818 245.111V496h-939V161.146Z" fill="#212C26"/><path d="M470.5 378.025c157.576-48.112 333.268-155.318 419.287-147.633 78.316 7.006 127.113 22.336 238.463 24.314 111.53 1.978 169.43-11.497 233.4-16.216 95.99-7.067 237.15 3.276 421.35 89.179v178.356H522l-51.5-128Z" fill="#30453A"/><path d="M2029 234.027V1113H-171V253.921c115.477-14.382 295.083-33.285 516.4-41.421 367.327-13.52 402.525 183.001 656.86 156.948 255.57-26.197 301.72-67.392 638.68-108.115C1803.8 241.65 1938.72 233.657 2029 230" fill="#2C3631"/><path d="M2130.5 605.025c-157.58-48.112-333.27-155.318-419.29-147.633-78.31 7.006-127.11 22.336-238.46 24.314-111.53 1.978-169.43-11.497-233.4-16.216-95.99-7.067-237.15 3.276-421.35 89.179v178.356h1261l51.5-128Z" fill="#212C26"/><path d="M1069.4 579c3.68-13.225 7.3-26.451 10.85-39.676l5.32-19.855 2.61-9.938c.9-3.298 1.73-6.629 2.57-9.949l2.44-9.994 2.52-9.96c1.68-6.64 3.31-13.313 5.25-19.887 1.92-6.586 3.85-13.16 5.94-19.69 2.12-6.519 4.41-12.984 6.6-19.47 9.25-25.813 18.41-51.615 28.58-77.032 10.06-25.451 20.66-50.659 32.65-75.351l-.35-.198c-1.75 2.957-3.45 5.937-5.15 8.916-1.71 2.979-3.43 5.958-5.09 8.971-.82 1.506-1.72 2.99-2.48 4.518l-2.31 4.606-4.59 9.235c-1.51 3.089-3.05 6.168-4.52 9.268l-4.15 9.432-4.11 9.455-2.04 4.738c-.67 1.583-1.27 3.188-1.91 4.782-2.48 6.41-4.99 12.808-7.39 19.239-2.37 6.454-4.53 12.973-6.81 19.448-1.12 3.254-2.29 6.475-3.35 9.741l-3.11 9.817a692.384 692.384 0 0 0-3.06 9.828c-1.01 3.276-2.01 6.563-2.94 9.873-1.93 6.585-3.77 13.192-5.79 19.755-1.92 6.585-3.85 13.171-5.89 19.712l-6.16 19.635-3.1 9.817-2.96 9.861c-1.92 6.585-3.76 13.204-5.4 19.866l-2.52 9.982-2.36 10.026c-3.11 13.369-5.91 26.814-8.17 40.358l.38.121Z" fill="#B56647"/><path d="M1101.94 453.98c26.19-23.724 55-45.569 90.69-57.519 17.28-5.761 35.61-7.871 54.78-7.849 9.34.131 18.95.45 27.35 3.254 9.04 2.385 15.25 9.586 13.15 17.875 5.62-8.058-.84-18.942-10.31-22.866-13.95-6.597-29.62-7.564-44.84-7.806-56.47-.934-105.85 33.96-130.82 74.911Zm27.93-84.695c.99-2.188 2.18-4.255 3.41-6.278a78.422 78.422 0 0 1 3.99-5.881c2.78-3.815 5.88-7.388 9.17-10.73 6.6-6.684 14.08-12.445 22.16-17.238 8.04-4.859 16.67-8.729 25.56-11.928 8.91-3.189 18.11-5.662 27.47-7.806-9.59.462-19.15 2.078-28.45 4.76l-3.49 1.023-3.43 1.198c-2.3.759-4.53 1.737-6.79 2.617-4.44 1.978-8.82 4.1-12.99 6.618-4.15 2.55-8.17 5.31-11.95 8.399-3.72 3.144-7.28 6.486-10.45 10.191a88.209 88.209 0 0 0-4.54 5.695c-1.39 1.99-2.76 4.002-3.97 6.101-1.21 2.1-2.34 4.233-3.31 6.454-.96 2.209-1.81 4.474-2.39 6.805Z" fill="#B56647"/><path d="M1113.29 411.599c-.48-4.716-.54-9.421-.3-14.083.2-4.672.8-9.3 1.63-13.863 1.74-9.113 4.67-17.963 9.04-26.077 1.02-2.066 2.25-4.023 3.42-6.002 1.29-1.913 2.54-3.859 3.96-5.684 1.32-1.902 2.84-3.639 4.3-5.442.75-.879 1.57-1.704 2.35-2.561.77-.869 1.54-1.737 2.39-2.529 6.55-6.596 13.97-12.379 21.86-17.656a90.637 90.637 0 0 0-24.07 15.337c-.92.769-1.79 1.605-2.65 2.451-.85.847-1.73 1.682-2.54 2.562-1.6 1.803-3.26 3.562-4.73 5.486-1.55 1.857-2.86 3.891-4.23 5.881-1.27 2.067-2.58 4.101-3.67 6.256-2.21 4.298-4.14 8.761-5.56 13.379-1.39 4.628-2.45 9.344-3.01 14.127a81.127 81.127 0 0 0-.48 14.357c.31 4.739.93 9.51 2.29 14.061Z" fill="#B56647"/><path d="M-130 545.039C74.716 504.527 184.76 503.457 295.77 500c270.536-8.456 294.066 50.422 595.284 39.373 67.608-2.49 204.406-9.444 393.156 3.045 59.88 3.95 100.18 8.23 120.28 10.123C1529.18 564.248 1722.64 563.405 2021 506v609H-128.705L-130 545.039Z" fill="#30453A"/></g><defs><clipPath id="a"><path fill="#fff" d="M0 0h1920v570H0z"/></clipPath></defs></svg>