<svg width="180" height="180" viewBox="0 0 180 180" fill="none" xmlns="http://www.w3.org/2000/svg">
<g clip-path="url(#clip0_370_15641)">
<path d="M0 33.75C0 15.1104 15.1104 0 33.75 0H146.25C164.89 0 180 15.1104 180 33.75V146.25C180 164.89 164.89 180 146.25 180H33.75C15.1104 180 0 164.89 0 146.25V33.75Z" fill="#30453A"/>
<path d="M63.8983 68.0581C63.6284 74.1982 61.4685 79.3451 58.1386 82.5054C54.8987 85.5755 51.1189 87.1105 45.8092 87.1105C38.8795 87.1105 34.6497 84.2211 31.7698 80.6092C27.27 75.1011 27 66.6133 27 54.2428C27 41.8722 27.27 33.3844 31.7698 27.8763C34.6497 24.2645 38.8795 21.375 45.8092 21.375C51.1189 21.375 54.8987 22.91 58.1386 25.9801C61.4685 29.1405 63.6284 34.197 63.8983 40.3372H51.1189C51.0289 38.5312 50.8489 36.7253 50.129 35.3709C49.409 33.8359 48.1491 32.9329 45.8092 32.9329C43.4693 32.9329 42.2093 34.0164 41.4893 35.4612C39.9594 38.441 39.7794 46.4773 39.7794 54.2428C39.7794 62.0082 39.9594 70.0446 41.4893 73.0243C42.2093 74.4691 43.4693 75.5526 45.8092 75.5526C48.1491 75.5526 49.409 74.5594 50.129 73.0243C50.8489 71.6699 51.0289 69.864 51.1189 68.0581H63.8983Z" fill="#EDCC94"/>
<path d="M106.793 67.5163C106.793 74.9206 105.713 78.8033 102.474 82.1442C99.7737 84.9434 95.5439 86.3882 89.1542 86.3882H70.615V22.0974H89.1542C95.5439 22.0974 99.7737 23.5421 102.564 26.251C105.623 29.2308 106.793 32.5717 106.793 39.6148C106.793 44.2199 105.983 47.7414 103.284 50.4503C102.474 51.263 101.574 51.9854 100.314 52.6174C101.484 53.2495 102.564 54.0622 103.284 54.8748C105.983 57.674 106.793 61.1956 106.793 67.5163ZM94.0139 66.523C94.0139 60.6538 92.394 58.2158 87.4442 58.2158H83.3944V74.8303H87.4442C92.574 74.8303 94.0139 72.3923 94.0139 66.523ZM94.0139 40.5178C94.0139 35.8224 92.664 33.6553 87.6242 33.6553H83.3944V47.3803H87.6242C92.574 47.3803 94.0139 45.2132 94.0139 40.5178Z" fill="#EDCC94"/>
<path d="M151.875 54.1525C151.875 65.9813 151.605 75.0109 147.105 80.1577C144.225 83.4987 140.266 86.3882 133.066 86.3882H114.977V22.0974H133.066C140.266 22.0974 144.225 24.9868 147.105 28.3278C151.605 33.4747 151.875 42.3237 151.875 54.1525ZM139.096 54.1525C139.096 47.0191 139.096 39.4342 137.566 36.4544C136.756 34.8291 135.136 33.6553 132.796 33.6553H127.756V74.8303H132.796C135.136 74.8303 136.756 73.6564 137.566 72.0311C139.096 69.0513 139.096 61.2859 139.096 54.1525Z" fill="#EDCC94"/>
<path d="M61.7425 105.892H50.943V158.625H38.1636V105.892H27.3641V94.3342H61.7425V105.892Z" fill="#EDCC94"/>
<path d="M102.725 158.625H73.206V94.3342H102.725V105.892H85.9854V120.43H100.385V131.988H85.9854V147.067H102.725V158.625Z" fill="#EDCC94"/>
<path d="M155.286 158.625H141.967L139.897 148.602H125.137L123.067 158.625H109.748L126.217 94.3342H138.817L155.286 158.625ZM137.467 137.044L132.517 113.206L127.567 137.044H137.467Z" fill="#EDCC94"/>
</g>
<defs>
<clipPath id="clip0_370_15641">
<rect width="180" height="180" fill="white"/>
</clipPath>
</defs>
</svg>
